<?xml version="1.0" encoding="utf-8" standalone="no"?>
<!DOCTYPE svg PUBLIC "-//W3C//DTD SVG 1.1//EN"
  "http://www.w3.org/Graphics/SVG/1.1/DTD/svg11.dtd">
<svg xmlns:xlink="http://www.w3.org/1999/xlink" width="864pt" height="648pt" viewBox="0 0 864 648" xmlns="http://www.w3.org/2000/svg" version="1.1">
 <metadata>
  <rdf:RDF xmlns:dc="http://purl.org/dc/elements/1.1/" xmlns:cc="http://creativecommons.org/ns#" xmlns:rdf="http://www.w3.org/1999/02/22-rdf-syntax-ns#">
   <cc:Work>
    <dc:type rdf:resource="http://purl.org/dc/dcmitype/StillImage"/>
    <dc:date>2025-10-15T17:15:05.050332</dc:date>
    <dc:format>image/svg+xml</dc:format>
    <dc:creator>
     <cc:Agent>
      <dc:title>Matplotlib v3.10.5, https://matplotlib.org/</dc:title>
     </cc:Agent>
    </dc:creator>
   </cc:Work>
  </rdf:RDF>
 </metadata>
 <defs>
  <style type="text/css">*{stroke-linejoin: round; stroke-linecap: butt}</style>
 </defs>
 <g id="figure_1">
  <g id="patch_1">
   <path d="M 0 648 
L 864 648 
L 864 0 
L 0 0 
z
" style="fill: #ffffff"/>
  </g>
  <g id="axes_1">
   <g id="patch_2">
    <path d="M 108 576.72 
L 777.6 576.72 
L 777.6 77.76 
L 108 77.76 
z
" style="fill: #ffffff"/>
   </g>
   <g id="FillBetweenPolyCollection_1">
    <defs>
     <path id="ma485d7276d" d="M 202.705365 -104.197679 
L 202.320472 -104.197679 
L 202.24065 -104.38287 
L 202.139668 -104.568062 
L 202.016937 -104.753253 
L 201.873783 -104.938444 
L 201.713726 -105.123636 
L 201.542418 -105.308827 
L 201.367157 -105.494018 
L 201.19601 -105.67921 
L 201.036669 -105.864401 
L 200.895253 -106.049592 
L 200.775339 -106.234784 
L 200.67741 -106.419975 
L 200.598856 -106.605166 
L 200.534479 -106.790358 
L 200.477298 -106.975549 
L 200.419392 -107.160741 
L 200.352503 -107.345932 
L 200.268238 -107.531123 
L 200.15786 -107.716315 
L 200.011846 -107.901506 
L 199.81943 -108.086697 
L 199.568385 -108.271889 
L 199.245141 -108.45708 
L 198.835202 -108.642271 
L 198.323693 -108.827463 
L 197.695805 -109.012654 
L 196.937058 -109.197845 
L 196.033395 -109.383037 
L 194.971364 -109.568228 
L 193.738678 -109.75342 
L 192.325393 -109.938611 
L 190.725703 -110.123802 
L 188.940086 -110.308994 
L 186.977281 -110.494185 
L 184.855569 -110.679376 
L 182.602961 -110.864568 
L 180.256263 -111.049759 
L 177.859285 -111.23495 
L 175.460671 -111.420142 
L 173.111761 -111.605333 
L 170.864623 -111.790524 
L 168.77002 -111.975716 
L 166.874842 -112.160907 
L 165.218514 -112.346099 
L 163.828213 -112.53129 
L 162.713253 -112.716481 
L 161.859508 -112.901673 
L 161.225196 -113.086864 
L 160.739397 -113.272055 
L 160.304508 -113.457247 
L 159.803376 -113.642438 
L 159.111174 -113.827629 
L 158.111285 -114.012821 
L 156.71365 -114.198012 
L 154.873128 -114.383203 
L 152.604859 -114.568395 
L 149.993331 -114.753586 
L 147.192333 -114.938777 
L 144.414155 -115.123969 
L 141.908253 -115.30916 
L 139.931773 -115.494352 
L 138.7163 -115.679543 
L 138.436364 -115.864734 
L 139.185275 -116.049926 
L 140.962625 -116.235117 
L 143.675545 -116.420308 
L 147.153173 -116.6055 
L 151.171233 -116.790691 
L 155.481997 -116.975882 
L 159.844283 -117.161074 
L 164.048758 -117.346265 
L 167.935291 -117.531456 
L 171.401053 -117.716648 
L 174.399912 -117.901839 
L 176.935079 -118.087031 
L 179.047649 -118.272222 
L 180.803669 -118.457413 
L 182.281834 -118.642605 
L 183.563133 -118.827796 
L 184.722966 -119.012987 
L 185.825722 -119.198179 
L 186.921479 -119.38337 
L 188.044427 -119.568561 
L 189.212711 -119.753753 
L 190.429464 -119.938944 
L 191.684855 -120.124135 
L 192.958975 -120.309327 
L 194.22529 -120.494518 
L 195.454332 -120.67971 
L 196.617242 -120.864901 
L 197.688809 -121.050092 
L 198.649725 -121.235284 
L 199.487882 -121.420475 
L 200.198706 -121.605666 
L 200.78462 -121.790858 
L 201.253849 -121.976049 
L 201.618815 -122.16124 
L 201.894417 -122.346432 
L 202.096399 -122.531623 
L 202.929439 -122.531623 
L 202.929439 -122.531623 
L 203.13142 -122.346432 
L 203.407022 -122.16124 
L 203.771989 -121.976049 
L 204.241217 -121.790858 
L 204.827132 -121.605666 
L 205.537955 -121.420475 
L 206.376112 -121.235284 
L 207.337028 -121.050092 
L 208.408595 -120.864901 
L 209.571505 -120.67971 
L 210.800547 -120.494518 
L 212.066862 -120.309327 
L 213.340982 -120.124135 
L 214.596373 -119.938944 
L 215.813126 -119.753753 
L 216.981411 -119.568561 
L 218.104358 -119.38337 
L 219.200115 -119.198179 
L 220.302872 -119.012987 
L 221.462705 -118.827796 
L 222.744003 -118.642605 
L 224.222169 -118.457413 
L 225.978188 -118.272222 
L 228.090758 -118.087031 
L 230.625925 -117.901839 
L 233.624784 -117.716648 
L 237.090546 -117.531456 
L 240.977079 -117.346265 
L 245.181554 -117.161074 
L 249.543841 -116.975882 
L 253.854604 -116.790691 
L 257.872664 -116.6055 
L 261.350292 -116.420308 
L 264.063213 -116.235117 
L 265.840562 -116.049926 
L 266.589474 -115.864734 
L 266.309538 -115.679543 
L 265.094065 -115.494352 
L 263.117585 -115.30916 
L 260.611682 -115.123969 
L 257.833505 -114.938777 
L 255.032506 -114.753586 
L 252.420978 -114.568395 
L 250.152709 -114.383203 
L 248.312188 -114.198012 
L 246.914552 -114.012821 
L 245.914664 -113.827629 
L 245.222461 -113.642438 
L 244.72133 -113.457247 
L 244.28644 -113.272055 
L 243.800641 -113.086864 
L 243.16633 -112.901673 
L 242.312585 -112.716481 
L 241.197624 -112.53129 
L 239.807323 -112.346099 
L 238.150995 -112.160907 
L 236.255817 -111.975716 
L 234.161214 -111.790524 
L 231.914076 -111.605333 
L 229.565166 -111.420142 
L 227.166552 -111.23495 
L 224.769574 -111.049759 
L 222.422876 -110.864568 
L 220.170268 -110.679376 
L 218.048556 -110.494185 
L 216.085752 -110.308994 
L 214.300135 -110.123802 
L 212.700445 -109.938611 
L 211.287159 -109.75342 
L 210.054473 -109.568228 
L 208.992442 -109.383037 
L 208.088779 -109.197845 
L 207.330032 -109.012654 
L 206.702145 -108.827463 
L 206.190635 -108.642271 
L 205.780697 -108.45708 
L 205.457452 -108.271889 
L 205.206407 -108.086697 
L 205.013991 -107.901506 
L 204.867977 -107.716315 
L 204.757599 -107.531123 
L 204.673334 -107.345932 
L 204.606446 -107.160741 
L 204.54854 -106.975549 
L 204.491359 -106.790358 
L 204.426981 -106.605166 
L 204.348428 -106.419975 
L 204.250498 -106.234784 
L 204.130584 -106.049592 
L 203.989169 -105.864401 
L 203.829827 -105.67921 
L 203.658681 -105.494018 
L 203.48342 -105.308827 
L 203.312111 -105.123636 
L 203.152055 -104.938444 
L 203.0089 -104.753253 
L 202.886169 -104.568062 
L 202.785188 -104.38287 
L 202.705365 -104.197679 
z
" style="stroke: #262626; stroke-width: 1.25"/>
    </defs>
    <g clip-path="url(#p56a6082e3b)">
     <use xlink:href="#ma485d7276d" x="0" y="648" style="fill: #5573cd; stroke: #262626; stroke-width: 1.25"/>
    </g>
   </g>
   <g id="FillBetweenPolyCollection_2">
    <defs>
     <path id="m04df033fb2" d="M 363.420021 -154.411821 
L 361.988591 -154.411821 
L 361.698063 -157.398949 
L 361.314693 -160.386077 
L 360.818471 -163.373204 
L 360.188152 -166.360332 
L 359.402038 -169.347459 
L 358.438919 -172.334587 
L 357.279129 -175.321714 
L 355.905659 -178.308842 
L 354.305266 -181.295969 
L 352.46954 -184.283097 
L 350.39589 -187.270225 
L 348.088416 -190.257352 
L 345.558651 -193.24448 
L 342.826112 -196.231607 
L 339.918604 -199.218735 
L 336.872163 -202.205862 
L 333.730501 -205.19299 
L 330.543842 -208.180117 
L 327.367022 -211.167245 
L 324.256847 -214.154373 
L 321.268778 -217.1415 
L 318.453189 -220.128628 
L 315.85154 -223.115755 
L 313.492963 -226.102883 
L 311.391766 -229.09001 
L 309.546352 -232.077138 
L 307.939894 -235.064265 
L 306.542906 -238.051393 
L 305.317562 -241.038521 
L 304.223336 -244.025648 
L 303.223275 -247.012776 
L 302.290096 -249.999903 
L 301.41122 -252.987031 
L 300.592005 -255.974158 
L 299.856651 -258.961286 
L 299.246566 -261.948413 
L 298.816334 -264.935541 
L 298.627751 -267.922668 
L 298.742627 -270.909796 
L 299.215222 -273.896924 
L 300.085196 -276.884051 
L 301.371878 -279.871179 
L 303.070516 -282.858306 
L 305.150916 -285.845434 
L 307.558654 -288.832561 
L 310.218757 -291.819689 
L 313.041467 -294.806816 
L 315.929524 -297.793944 
L 318.786159 -300.781072 
L 321.522958 -303.768199 
L 324.066709 -306.755327 
L 326.364501 -309.742454 
L 328.386543 -312.729582 
L 330.126477 -315.716709 
L 331.599274 -318.703837 
L 332.837148 -321.690964 
L 333.884105 -324.678092 
L 334.789938 -327.66522 
L 335.604434 -330.652347 
L 336.372458 -333.639475 
L 337.1304 -336.626602 
L 337.904183 -339.61373 
L 338.708813 -342.600857 
L 339.54924 -345.587985 
L 340.422172 -348.575112 
L 341.318419 -351.56224 
L 342.225379 -354.549368 
L 343.129341 -357.536495 
L 344.017377 -360.523623 
L 344.878712 -363.51075 
L 345.705548 -366.497878 
L 346.493389 -369.485005 
L 347.240969 -372.472133 
L 347.949893 -375.45926 
L 348.624125 -378.446388 
L 349.269398 -381.433516 
L 349.892647 -384.420643 
L 350.501472 -387.407771 
L 351.103659 -390.394898 
L 351.706727 -393.382026 
L 352.317477 -396.369153 
L 352.941525 -399.356281 
L 353.582813 -402.343408 
L 354.243153 -405.330536 
L 354.921843 -408.317663 
L 355.615454 -411.304791 
L 356.317842 -414.291919 
L 357.020457 -417.279046 
L 357.712925 -420.266174 
L 358.383871 -423.253301 
L 359.021885 -426.240429 
L 359.616499 -429.227556 
L 360.159056 -432.214684 
L 360.643358 -435.201811 
L 361.066016 -438.188939 
L 361.426492 -441.176067 
L 361.726853 -444.163194 
L 361.971311 -447.150322 
L 362.165621 -450.137449 
L 363.242992 -450.137449 
L 363.242992 -450.137449 
L 363.437301 -447.150322 
L 363.681759 -444.163194 
L 363.982121 -441.176067 
L 364.342596 -438.188939 
L 364.765254 -435.201811 
L 365.249556 -432.214684 
L 365.792113 -429.227556 
L 366.386727 -426.240429 
L 367.024741 -423.253301 
L 367.695687 -420.266174 
L 368.388155 -417.279046 
L 369.09077 -414.291919 
L 369.793159 -411.304791 
L 370.486769 -408.317663 
L 371.16546 -405.330536 
L 371.8258 -402.343408 
L 372.467088 -399.356281 
L 373.091135 -396.369153 
L 373.701886 -393.382026 
L 374.304954 -390.394898 
L 374.90714 -387.407771 
L 375.515965 -384.420643 
L 376.139214 -381.433516 
L 376.784488 -378.446388 
L 377.458719 -375.45926 
L 378.167644 -372.472133 
L 378.915223 -369.485005 
L 379.703064 -366.497878 
L 380.5299 -363.51075 
L 381.391235 -360.523623 
L 382.279271 -357.536495 
L 383.183233 -354.549368 
L 384.090193 -351.56224 
L 384.98644 -348.575112 
L 385.859372 -345.587985 
L 386.6998 -342.600857 
L 387.504429 -339.61373 
L 388.278212 -336.626602 
L 389.036155 -333.639475 
L 389.804179 -330.652347 
L 390.618674 -327.66522 
L 391.524508 -324.678092 
L 392.571465 -321.690964 
L 393.809338 -318.703837 
L 395.282136 -315.716709 
L 397.022069 -312.729582 
L 399.044112 -309.742454 
L 401.341903 -306.755327 
L 403.885654 -303.768199 
L 406.622453 -300.781072 
L 409.479089 -297.793944 
L 412.367146 -294.806816 
L 415.189856 -291.819689 
L 417.849958 -288.832561 
L 420.257697 -285.845434 
L 422.338096 -282.858306 
L 424.036734 -279.871179 
L 425.323417 -276.884051 
L 426.19339 -273.896924 
L 426.665986 -270.909796 
L 426.780861 -267.922668 
L 426.592278 -264.935541 
L 426.162046 -261.948413 
L 425.551961 -258.961286 
L 424.816607 -255.974158 
L 423.997392 -252.987031 
L 423.118516 -249.999903 
L 422.185337 -247.012776 
L 421.185276 -244.025648 
L 420.09105 -241.038521 
L 418.865707 -238.051393 
L 417.468719 -235.064265 
L 415.86226 -232.077138 
L 414.016846 -229.09001 
L 411.915649 -226.102883 
L 409.557072 -223.115755 
L 406.955423 -220.128628 
L 404.139834 -217.1415 
L 401.151766 -214.154373 
L 398.04159 -211.167245 
L 394.86477 -208.180117 
L 391.678111 -205.19299 
L 388.536449 -202.205862 
L 385.490008 -199.218735 
L 382.582501 -196.231607 
L 379.849962 -193.24448 
L 377.320196 -190.257352 
L 375.012722 -187.270225 
L 372.939072 -184.283097 
L 371.103346 -181.295969 
L 369.502953 -178.308842 
L 368.129483 -175.321714 
L 366.969693 -172.334587 
L 366.006574 -169.347459 
L 365.220461 -166.360332 
L 364.590142 -163.373204 
L 364.09392 -160.386077 
L 363.710549 -157.398949 
L 363.420021 -154.411821 
z
" style="stroke: #262626; stroke-width: 1.25"/>
    </defs>
    <g clip-path="url(#p56a6082e3b)">
     <use xlink:href="#m04df033fb2" x="0" y="648" style="fill: #107010; stroke: #262626; stroke-width: 1.25"/>
    </g>
   </g>
   <g id="FillBetweenPolyCollection_3">
    <defs>
     <path id="m375f19a9e5" d="M 523.371312 -141.400881 
L 522.420076 -141.400881 
L 522.228841 -143.62293 
L 521.981426 -145.844979 
L 521.669391 -148.067028 
L 521.285562 -150.289077 
L 520.824679 -152.511126 
L 520.283817 -154.733175 
L 519.662417 -156.955224 
L 518.961822 -159.177273 
L 518.184284 -161.399322 
L 517.331516 -163.621371 
L 516.403001 -165.84342 
L 515.394358 -168.065469 
L 514.296135 -170.287518 
L 513.09338 -172.509566 
L 511.766232 -174.731615 
L 510.291639 -176.953664 
L 508.646049 -179.175713 
L 506.808749 -181.397762 
L 504.765339 -183.619811 
L 502.510741 -185.84186 
L 500.051184 -188.063909 
L 497.404753 -190.285958 
L 494.600311 -192.508007 
L 491.67494 -194.730056 
L 488.670319 -196.952105 
L 485.628719 -199.174154 
L 482.589445 -201.396203 
L 479.586517 -203.618252 
L 476.648204 -205.840301 
L 473.798682 -208.06235 
L 471.061613 -210.284399 
L 468.464965 -212.506447 
L 466.045977 -214.728496 
L 463.854972 -216.950545 
L 461.95676 -219.172594 
L 460.428714 -221.394643 
L 459.355247 -223.616692 
L 458.819139 -225.838741 
L 458.890912 -228.06079 
L 459.617991 -230.282839 
L 461.015586 -232.504888 
L 463.061027 -234.726937 
L 465.692697 -236.948986 
L 468.813893 -239.171035 
L 472.301043 -241.393084 
L 476.01495 -243.615133 
L 479.813305 -245.837182 
L 483.562605 -248.059231 
L 487.147912 -250.28128 
L 490.479455 -252.503328 
L 493.495695 -254.725377 
L 496.163128 -256.947426 
L 498.473526 -259.169475 
L 500.439525 -261.391524 
L 502.089468 -263.613573 
L 503.46223 -265.835622 
L 504.602488 -268.057671 
L 505.556644 -270.27972 
L 506.369439 -272.501769 
L 507.081203 -274.723818 
L 507.725684 -276.945867 
L 508.328476 -279.167916 
L 508.906113 -281.389965 
L 509.46595 -283.612014 
L 510.0069 -285.834063 
L 510.521041 -288.056112 
L 510.995958 -290.27816 
L 511.417568 -292.500209 
L 511.773073 -294.722258 
L 512.053637 -296.944307 
L 512.256431 -299.166356 
L 512.385768 -301.388405 
L 512.453208 -303.610454 
L 512.476682 -305.832503 
L 512.478807 -308.054552 
L 512.484686 -310.276601 
L 512.519523 -312.49865 
L 512.606359 -314.720699 
L 512.764187 -316.942748 
L 513.006589 -319.164797 
L 513.340981 -321.386846 
L 513.768414 -323.608895 
L 514.283886 -325.830944 
L 514.877041 -328.052993 
L 515.533163 -330.275041 
L 516.234362 -332.49709 
L 516.960869 -334.719139 
L 517.692362 -336.941188 
L 518.409246 -339.163237 
L 519.093819 -341.385286 
L 519.731219 -343.607335 
L 520.310114 -345.829384 
L 520.823062 -348.051433 
L 521.266535 -350.273482 
L 521.640629 -352.495531 
L 521.948518 -354.71758 
L 522.195733 -356.939629 
L 522.389368 -359.161678 
L 522.53731 -361.383727 
L 523.254077 -361.383727 
L 523.254077 -361.383727 
L 523.402019 -359.161678 
L 523.595655 -356.939629 
L 523.84287 -354.71758 
L 524.150759 -352.495531 
L 524.524853 -350.273482 
L 524.968326 -348.051433 
L 525.481274 -345.829384 
L 526.060169 -343.607335 
L 526.697569 -341.385286 
L 527.382141 -339.163237 
L 528.099026 -336.941188 
L 528.830518 -334.719139 
L 529.557025 -332.49709 
L 530.258225 -330.275041 
L 530.914347 -328.052993 
L 531.507502 -325.830944 
L 532.022973 -323.608895 
L 532.450407 -321.386846 
L 532.784798 -319.164797 
L 533.027201 -316.942748 
L 533.185028 -314.720699 
L 533.271864 -312.49865 
L 533.306701 -310.276601 
L 533.312581 -308.054552 
L 533.314705 -305.832503 
L 533.33818 -303.610454 
L 533.40562 -301.388405 
L 533.534956 -299.166356 
L 533.737751 -296.944307 
L 534.018315 -294.722258 
L 534.373819 -292.500209 
L 534.79543 -290.27816 
L 535.270347 -288.056112 
L 535.784488 -285.834063 
L 536.325437 -283.612014 
L 536.885274 -281.389965 
L 537.462911 -279.167916 
L 538.065703 -276.945867 
L 538.710185 -274.723818 
L 539.421949 -272.501769 
L 540.234744 -270.27972 
L 541.188899 -268.057671 
L 542.329157 -265.835622 
L 543.701919 -263.613573 
L 545.351862 -261.391524 
L 547.317861 -259.169475 
L 549.628259 -256.947426 
L 552.295693 -254.725377 
L 555.311932 -252.503328 
L 558.643476 -250.28128 
L 562.228783 -248.059231 
L 565.978082 -245.837182 
L 569.776437 -243.615133 
L 573.490344 -241.393084 
L 576.977494 -239.171035 
L 580.098691 -236.948986 
L 582.730361 -234.726937 
L 584.775802 -232.504888 
L 586.173397 -230.282839 
L 586.900476 -228.06079 
L 586.972249 -225.838741 
L 586.436141 -223.616692 
L 585.362674 -221.394643 
L 583.834628 -219.172594 
L 581.936415 -216.950545 
L 579.745411 -214.728496 
L 577.326422 -212.506447 
L 574.729774 -210.284399 
L 571.992706 -208.06235 
L 569.143184 -205.840301 
L 566.204871 -203.618252 
L 563.201942 -201.396203 
L 560.162668 -199.174154 
L 557.121068 -196.952105 
L 554.116447 -194.730056 
L 551.191077 -192.508007 
L 548.386635 -190.285958 
L 545.740204 -188.063909 
L 543.280647 -185.84186 
L 541.026048 -183.619811 
L 538.982638 -181.397762 
L 537.145338 -179.175713 
L 535.499748 -176.953664 
L 534.025156 -174.731615 
L 532.698008 -172.509566 
L 531.495252 -170.287518 
L 530.39703 -168.065469 
L 529.388386 -165.84342 
L 528.459871 -163.621371 
L 527.607103 -161.399322 
L 526.829565 -159.177273 
L 526.12897 -156.955224 
L 525.50757 -154.733175 
L 524.966708 -152.511126 
L 524.505826 -150.289077 
L 524.121996 -148.067028 
L 523.809961 -145.844979 
L 523.562546 -143.62293 
L 523.371312 -141.400881 
z
" style="stroke: #262626; stroke-width: 1.25"/>
    </defs>
    <g clip-path="url(#p56a6082e3b)">
     <use xlink:href="#m375f19a9e5" x="0" y="648" style="fill: #df2020; stroke: #262626; stroke-width: 1.25"/>
    </g>
   </g>
   <g id="FillBetweenPolyCollection_4">
    <defs>
     <path id="m3e16af27b7" d="M 683.328607 -125.039775 
L 682.845556 -125.039775 
L 682.740536 -125.629625 
L 682.602126 -126.219475 
L 682.424928 -126.809325 
L 682.204577 -127.399174 
L 681.938456 -127.989024 
L 681.626362 -128.578874 
L 681.271022 -129.168724 
L 680.878326 -129.758574 
L 680.457188 -130.348424 
L 680.018976 -130.938274 
L 679.576508 -131.528124 
L 679.142714 -132.117973 
L 678.729091 -132.707823 
L 678.344159 -133.297673 
L 677.992143 -133.887523 
L 677.672098 -134.477373 
L 677.377611 -135.067223 
L 677.097177 -135.657073 
L 676.815179 -136.246922 
L 676.513319 -136.836772 
L 676.172225 -137.426622 
L 675.772943 -138.016472 
L 675.298013 -138.606322 
L 674.731924 -139.196172 
L 674.060904 -139.786022 
L 673.272182 -140.375872 
L 672.353003 -140.965721 
L 671.289809 -141.555571 
L 670.068 -142.145421 
L 668.672588 -142.735271 
L 667.089829 -143.325121 
L 665.309693 -143.914971 
L 663.328713 -144.504821 
L 661.152593 -145.09467 
L 658.79787 -145.68452 
L 656.292023 -146.27437 
L 653.671685 -146.86422 
L 650.979004 -147.45407 
L 648.25666 -148.04392 
L 645.542421 -148.63377 
L 642.864438 -149.22362 
L 640.238482 -149.813469 
L 637.668118 -150.403319 
L 635.148312 -150.993169 
L 632.672234 -151.583019 
L 630.240235 -152.172869 
L 627.869313 -152.762719 
L 625.600915 -153.352569 
L 623.504998 -153.942418 
L 621.678753 -154.532268 
L 620.239368 -155.122118 
L 619.311397 -155.711968 
L 619.010526 -156.301818 
L 619.426404 -156.891668 
L 620.607586 -157.481518 
L 622.551369 -158.071368 
L 625.200412 -158.661217 
L 628.446806 -159.251067 
L 632.142898 -159.840917 
L 636.11699 -160.430767 
L 640.191322 -161.020617 
L 644.199521 -161.610467 
L 648.001031 -162.200317 
L 651.490746 -162.790166 
L 654.603017 -163.380016 
L 657.310174 -163.969866 
L 659.616579 -164.559716 
L 661.549782 -165.149566 
L 663.15067 -165.739416 
L 664.464422 -166.329266 
L 665.533688 -166.919116 
L 666.39485 -167.508965 
L 667.077461 -168.098815 
L 667.606311 -168.688665 
L 668.005029 -169.278515 
L 668.299903 -169.868365 
L 668.522662 -170.458215 
L 668.711336 -171.048065 
L 668.908819 -171.637914 
L 669.159387 -172.227764 
L 669.503909 -172.817614 
L 669.974779 -173.407464 
L 670.591635 -173.997314 
L 671.358759 -174.587164 
L 672.264614 -175.177014 
L 673.283574 -175.766864 
L 674.379442 -176.356713 
L 675.510096 -176.946563 
L 676.632426 -177.536413 
L 677.706839 -178.126263 
L 678.700715 -178.716113 
L 679.590532 -179.305963 
L 680.362577 -179.895813 
L 681.01243 -180.485662 
L 681.54354 -181.075512 
L 681.96528 -181.665362 
L 682.290832 -182.255212 
L 682.535224 -182.845062 
L 682.713697 -183.434912 
L 683.460465 -183.434912 
L 683.460465 -183.434912 
L 683.638938 -182.845062 
L 683.883331 -182.255212 
L 684.208883 -181.665362 
L 684.630623 -181.075512 
L 685.161733 -180.485662 
L 685.811586 -179.895813 
L 686.58363 -179.305963 
L 687.473448 -178.716113 
L 688.467324 -178.126263 
L 689.541736 -177.536413 
L 690.664067 -176.946563 
L 691.79472 -176.356713 
L 692.890589 -175.766864 
L 693.909548 -175.177014 
L 694.815404 -174.587164 
L 695.582528 -173.997314 
L 696.199384 -173.407464 
L 696.670253 -172.817614 
L 697.014776 -172.227764 
L 697.265344 -171.637914 
L 697.462826 -171.048065 
L 697.651501 -170.458215 
L 697.87426 -169.868365 
L 698.169133 -169.278515 
L 698.567851 -168.688665 
L 699.096701 -168.098815 
L 699.779313 -167.508965 
L 700.640474 -166.919116 
L 701.709741 -166.329266 
L 703.023492 -165.739416 
L 704.624381 -165.149566 
L 706.557584 -164.559716 
L 708.863989 -163.969866 
L 711.571146 -163.380016 
L 714.683416 -162.790166 
L 718.173132 -162.200317 
L 721.974642 -161.610467 
L 725.982841 -161.020617 
L 730.057173 -160.430767 
L 734.031265 -159.840917 
L 737.727357 -159.251067 
L 740.973751 -158.661217 
L 743.622793 -158.071368 
L 745.566577 -157.481518 
L 746.747759 -156.891668 
L 747.163636 -156.301818 
L 746.862765 -155.711968 
L 745.934795 -155.122118 
L 744.49541 -154.532268 
L 742.669165 -153.942418 
L 740.573248 -153.352569 
L 738.30485 -152.762719 
L 735.933928 -152.172869 
L 733.501929 -151.583019 
L 731.02585 -150.993169 
L 728.506045 -150.403319 
L 725.935681 -149.813469 
L 723.309724 -149.22362 
L 720.631742 -148.63377 
L 717.917503 -148.04392 
L 715.195159 -147.45407 
L 712.502478 -146.86422 
L 709.88214 -146.27437 
L 707.376293 -145.68452 
L 705.02157 -145.09467 
L 702.84545 -144.504821 
L 700.864469 -143.914971 
L 699.084334 -143.325121 
L 697.501575 -142.735271 
L 696.106163 -142.145421 
L 694.884354 -141.555571 
L 693.821159 -140.965721 
L 692.90198 -140.375872 
L 692.113259 -139.786022 
L 691.442239 -139.196172 
L 690.876149 -138.606322 
L 690.401219 -138.016472 
L 690.001938 -137.426622 
L 689.660844 -136.836772 
L 689.358983 -136.246922 
L 689.076986 -135.657073 
L 688.796552 -135.067223 
L 688.502065 -134.477373 
L 688.182019 -133.887523 
L 687.830004 -133.297673 
L 687.445072 -132.707823 
L 687.031448 -132.117973 
L 686.597655 -131.528124 
L 686.155187 -130.938274 
L 685.716974 -130.348424 
L 685.295837 -129.758574 
L 684.903141 -129.168724 
L 684.5478 -128.578874 
L 684.235706 -127.989024 
L 683.969586 -127.399174 
L 683.749235 -126.809325 
L 683.572036 -126.219475 
L 683.433626 -125.629625 
L 683.328607 -125.039775 
z
" style="stroke: #262626; stroke-width: 1.25"/>
    </defs>
    <g clip-path="url(#p56a6082e3b)">
     <use xlink:href="#m3e16af27b7" x="0" y="648" style="fill: #df20df; stroke: #262626; stroke-width: 1.25"/>
    </g>
   </g>
   <g id="matplotlib.axis_1">
    <g id="xtick_1">
     <g id="line2d_1">
      <path d="M 202.512919 576.72 
L 202.512919 77.76 
" clip-path="url(#p56a6082e3b)" style="fill: none; stroke-dasharray: 0.8,1.32; stroke-dashoffset: 0; stroke: #c0c0c0; stroke-width: 0.8"/>
     </g>
     <g id="line2d_2">
      <defs>
       <path id="m29a93afbe7" d="M 0 0 
L 0 3.5 
" style="stroke: #000000; stroke-width: 0.8"/>
      </defs>
      <g>
       <use xlink:href="#m29a93afbe7" x="202.512919" y="576.72" style="stroke: #000000; stroke-width: 0.8"/>
      </g>
     </g>
     <g id="text_1">
      <!-- NOx Idle -->
      <g transform="translate(174.771122 593.597969) scale(0.13 -0.13)">
       <defs>
        <path id="DejaVuSans-4e" d="M 628 4666 
L 1478 4666 
L 3547 763 
L 3547 4666 
L 4159 4666 
L 4159 0 
L 3309 0 
L 1241 3903 
L 1241 0 
L 628 0 
L 628 4666 
z
" transform="scale(0.015625)"/>
        <path id="DejaVuSans-4f" d="M 2522 4238 
Q 1834 4238 1429 3725 
Q 1025 3213 1025 2328 
Q 1025 1447 1429 934 
Q 1834 422 2522 422 
Q 3209 422 3611 934 
Q 4013 1447 4013 2328 
Q 4013 3213 3611 3725 
Q 3209 4238 2522 4238 
z
M 2522 4750 
Q 3503 4750 4090 4092 
Q 4678 3434 4678 2328 
Q 4678 1225 4090 567 
Q 3503 -91 2522 -91 
Q 1538 -91 948 565 
Q 359 1222 359 2328 
Q 359 3434 948 4092 
Q 1538 4750 2522 4750 
z
" transform="scale(0.015625)"/>
        <path id="DejaVuSans-78" d="M 3513 3500 
L 2247 1797 
L 3578 0 
L 2900 0 
L 1881 1375 
L 863 0 
L 184 0 
L 1544 1831 
L 300 3500 
L 978 3500 
L 1906 2253 
L 2834 3500 
L 3513 3500 
z
" transform="scale(0.015625)"/>
        <path id="DejaVuSans-20" transform="scale(0.015625)"/>
        <path id="DejaVuSans-49" d="M 628 4666 
L 1259 4666 
L 1259 0 
L 628 0 
L 628 4666 
z
" transform="scale(0.015625)"/>
        <path id="DejaVuSans-64" d="M 2906 2969 
L 2906 4863 
L 3481 4863 
L 3481 0 
L 2906 0 
L 2906 525 
Q 2725 213 2448 61 
Q 2172 -91 1784 -91 
Q 1150 -91 751 415 
Q 353 922 353 1747 
Q 353 2572 751 3078 
Q 1150 3584 1784 3584 
Q 2172 3584 2448 3432 
Q 2725 3281 2906 2969 
z
M 947 1747 
Q 947 1113 1208 752 
Q 1469 391 1925 391 
Q 2381 391 2643 752 
Q 2906 1113 2906 1747 
Q 2906 2381 2643 2742 
Q 2381 3103 1925 3103 
Q 1469 3103 1208 2742 
Q 947 2381 947 1747 
z
" transform="scale(0.015625)"/>
        <path id="DejaVuSans-6c" d="M 603 4863 
L 1178 4863 
L 1178 0 
L 603 0 
L 603 4863 
z
" transform="scale(0.015625)"/>
        <path id="DejaVuSans-65" d="M 3597 1894 
L 3597 1613 
L 953 1613 
Q 991 1019 1311 708 
Q 1631 397 2203 397 
Q 2534 397 2845 478 
Q 3156 559 3463 722 
L 3463 178 
Q 3153 47 2828 -22 
Q 2503 -91 2169 -91 
Q 1331 -91 842 396 
Q 353 884 353 1716 
Q 353 2575 817 3079 
Q 1281 3584 2069 3584 
Q 2775 3584 3186 3129 
Q 3597 2675 3597 1894 
z
M 3022 2063 
Q 3016 2534 2758 2815 
Q 2500 3097 2075 3097 
Q 1594 3097 1305 2825 
Q 1016 2553 972 2059 
L 3022 2063 
z
" transform="scale(0.015625)"/>
       </defs>
       <use xlink:href="#DejaVuSans-4e"/>
       <use xlink:href="#DejaVuSans-4f" transform="translate(74.804688 0)"/>
       <use xlink:href="#DejaVuSans-78" transform="translate(153.515625 0)"/>
       <use xlink:href="#DejaVuSans-20" transform="translate(212.695312 0)"/>
       <use xlink:href="#DejaVuSans-49" transform="translate(244.482422 0)"/>
       <use xlink:href="#DejaVuSans-64" transform="translate(273.974609 0)"/>
       <use xlink:href="#DejaVuSans-6c" transform="translate(337.451172 0)"/>
       <use xlink:href="#DejaVuSans-65" transform="translate(365.234375 0)"/>
      </g>
     </g>
    </g>
    <g id="xtick_2">
     <g id="line2d_3">
      <path d="M 362.704306 576.72 
L 362.704306 77.76 
" clip-path="url(#p56a6082e3b)" style="fill: none; stroke-dasharray: 0.8,1.32; stroke-dashoffset: 0; stroke: #c0c0c0; stroke-width: 0.8"/>
     </g>
     <g id="line2d_4">
      <g>
       <use xlink:href="#m29a93afbe7" x="362.704306" y="576.72" style="stroke: #000000; stroke-width: 0.8"/>
      </g>
     </g>
     <g id="text_2">
      <!-- NOx T/O -->
      <g transform="translate(335.535322 593.597969) scale(0.13 -0.13)">
       <defs>
        <path id="DejaVuSans-54" d="M -19 4666 
L 3928 4666 
L 3928 4134 
L 2272 4134 
L 2272 0 
L 1638 0 
L 1638 4134 
L -19 4134 
L -19 4666 
z
" transform="scale(0.015625)"/>
        <path id="DejaVuSans-2f" d="M 1625 4666 
L 2156 4666 
L 531 -594 
L 0 -594 
L 1625 4666 
z
" transform="scale(0.015625)"/>
       </defs>
       <use xlink:href="#DejaVuSans-4e"/>
       <use xlink:href="#DejaVuSans-4f" transform="translate(74.804688 0)"/>
       <use xlink:href="#DejaVuSans-78" transform="translate(153.515625 0)"/>
       <use xlink:href="#DejaVuSans-20" transform="translate(212.695312 0)"/>
       <use xlink:href="#DejaVuSans-54" transform="translate(244.482422 0)"/>
       <use xlink:href="#DejaVuSans-2f" transform="translate(305.566406 0)"/>
       <use xlink:href="#DejaVuSans-4f" transform="translate(339.257812 0)"/>
      </g>
     </g>
    </g>
    <g id="xtick_3">
     <g id="line2d_5">
      <path d="M 522.895694 576.72 
L 522.895694 77.76 
" clip-path="url(#p56a6082e3b)" style="fill: none; stroke-dasharray: 0.8,1.32; stroke-dashoffset: 0; stroke: #c0c0c0; stroke-width: 0.8"/>
     </g>
     <g id="line2d_6">
      <g>
       <use xlink:href="#m29a93afbe7" x="522.895694" y="576.72" style="stroke: #000000; stroke-width: 0.8"/>
      </g>
     </g>
     <g id="text_3">
      <!-- NOx C/O -->
      <g transform="translate(495.157959 593.597969) scale(0.13 -0.13)">
       <defs>
        <path id="DejaVuSans-43" d="M 4122 4306 
L 4122 3641 
Q 3803 3938 3442 4084 
Q 3081 4231 2675 4231 
Q 1875 4231 1450 3742 
Q 1025 3253 1025 2328 
Q 1025 1406 1450 917 
Q 1875 428 2675 428 
Q 3081 428 3442 575 
Q 3803 722 4122 1019 
L 4122 359 
Q 3791 134 3420 21 
Q 3050 -91 2638 -91 
Q 1578 -91 968 557 
Q 359 1206 359 2328 
Q 359 3453 968 4101 
Q 1578 4750 2638 4750 
Q 3056 4750 3426 4639 
Q 3797 4528 4122 4306 
z
" transform="scale(0.015625)"/>
       </defs>
       <use xlink:href="#DejaVuSans-4e"/>
       <use xlink:href="#DejaVuSans-4f" transform="translate(74.804688 0)"/>
       <use xlink:href="#DejaVuSans-78" transform="translate(153.515625 0)"/>
       <use xlink:href="#DejaVuSans-20" transform="translate(212.695312 0)"/>
       <use xlink:href="#DejaVuSans-43" transform="translate(244.482422 0)"/>
       <use xlink:href="#DejaVuSans-2f" transform="translate(314.306641 0)"/>
       <use xlink:href="#DejaVuSans-4f" transform="translate(347.998047 0)"/>
      </g>
     </g>
    </g>
    <g id="xtick_4">
     <g id="line2d_7">
      <path d="M 683.087081 576.72 
L 683.087081 77.76 
" clip-path="url(#p56a6082e3b)" style="fill: none; stroke-dasharray: 0.8,1.32; stroke-dashoffset: 0; stroke: #c0c0c0; stroke-width: 0.8"/>
     </g>
     <g id="line2d_8">
      <g>
       <use xlink:href="#m29a93afbe7" x="683.087081" y="576.72" style="stroke: #000000; stroke-width: 0.8"/>
      </g>
     </g>
     <g id="text_4">
      <!-- NOx App -->
      <g transform="translate(654.495206 593.597969) scale(0.13 -0.13)">
       <defs>
        <path id="DejaVuSans-41" d="M 2188 4044 
L 1331 1722 
L 3047 1722 
L 2188 4044 
z
M 1831 4666 
L 2547 4666 
L 4325 0 
L 3669 0 
L 3244 1197 
L 1141 1197 
L 716 0 
L 50 0 
L 1831 4666 
z
" transform="scale(0.015625)"/>
        <path id="DejaVuSans-70" d="M 1159 525 
L 1159 -1331 
L 581 -1331 
L 581 3500 
L 1159 3500 
L 1159 2969 
Q 1341 3281 1617 3432 
Q 1894 3584 2278 3584 
Q 2916 3584 3314 3078 
Q 3713 2572 3713 1747 
Q 3713 922 3314 415 
Q 2916 -91 2278 -91 
Q 1894 -91 1617 61 
Q 1341 213 1159 525 
z
M 3116 1747 
Q 3116 2381 2855 2742 
Q 2594 3103 2138 3103 
Q 1681 3103 1420 2742 
Q 1159 2381 1159 1747 
Q 1159 1113 1420 752 
Q 1681 391 2138 391 
Q 2594 391 2855 752 
Q 3116 1113 3116 1747 
z
" transform="scale(0.015625)"/>
       </defs>
       <use xlink:href="#DejaVuSans-4e"/>
       <use xlink:href="#DejaVuSans-4f" transform="translate(74.804688 0)"/>
       <use xlink:href="#DejaVuSans-78" transform="translate(153.515625 0)"/>
       <use xlink:href="#DejaVuSans-20" transform="translate(212.695312 0)"/>
       <use xlink:href="#DejaVuSans-41" transform="translate(244.482422 0)"/>
       <use xlink:href="#DejaVuSans-70" transform="translate(312.890625 0)"/>
       <use xlink:href="#DejaVuSans-70" transform="translate(376.367188 0)"/>
      </g>
     </g>
    </g>
    <g id="text_5">
     <!-- Pollutant and operating point -->
     <g transform="translate(333.239063 611.699219) scale(0.15 -0.15)">
      <defs>
       <path id="DejaVuSans-50" d="M 1259 4147 
L 1259 2394 
L 2053 2394 
Q 2494 2394 2734 2622 
Q 2975 2850 2975 3272 
Q 2975 3691 2734 3919 
Q 2494 4147 2053 4147 
L 1259 4147 
z
M 628 4666 
L 2053 4666 
Q 2838 4666 3239 4311 
Q 3641 3956 3641 3272 
Q 3641 2581 3239 2228 
Q 2838 1875 2053 1875 
L 1259 1875 
L 1259 0 
L 628 0 
L 628 4666 
z
" transform="scale(0.015625)"/>
       <path id="DejaVuSans-6f" d="M 1959 3097 
Q 1497 3097 1228 2736 
Q 959 2375 959 1747 
Q 959 1119 1226 758 
Q 1494 397 1959 397 
Q 2419 397 2687 759 
Q 2956 1122 2956 1747 
Q 2956 2369 2687 2733 
Q 2419 3097 1959 3097 
z
M 1959 3584 
Q 2709 3584 3137 3096 
Q 3566 2609 3566 1747 
Q 3566 888 3137 398 
Q 2709 -91 1959 -91 
Q 1206 -91 779 398 
Q 353 888 353 1747 
Q 353 2609 779 3096 
Q 1206 3584 1959 3584 
z
" transform="scale(0.015625)"/>
       <path id="DejaVuSans-75" d="M 544 1381 
L 544 3500 
L 1119 3500 
L 1119 1403 
Q 1119 906 1312 657 
Q 1506 409 1894 409 
Q 2359 409 2629 706 
Q 2900 1003 2900 1516 
L 2900 3500 
L 3475 3500 
L 3475 0 
L 2900 0 
L 2900 538 
Q 2691 219 2414 64 
Q 2138 -91 1772 -91 
Q 1169 -91 856 284 
Q 544 659 544 1381 
z
M 1991 3584 
L 1991 3584 
z
" transform="scale(0.015625)"/>
       <path id="DejaVuSans-74" d="M 1172 4494 
L 1172 3500 
L 2356 3500 
L 2356 3053 
L 1172 3053 
L 1172 1153 
Q 1172 725 1289 603 
Q 1406 481 1766 481 
L 2356 481 
L 2356 0 
L 1766 0 
Q 1100 0 847 248 
Q 594 497 594 1153 
L 594 3053 
L 172 3053 
L 172 3500 
L 594 3500 
L 594 4494 
L 1172 4494 
z
" transform="scale(0.015625)"/>
       <path id="DejaVuSans-61" d="M 2194 1759 
Q 1497 1759 1228 1600 
Q 959 1441 959 1056 
Q 959 750 1161 570 
Q 1363 391 1709 391 
Q 2188 391 2477 730 
Q 2766 1069 2766 1631 
L 2766 1759 
L 2194 1759 
z
M 3341 1997 
L 3341 0 
L 2766 0 
L 2766 531 
Q 2569 213 2275 61 
Q 1981 -91 1556 -91 
Q 1019 -91 701 211 
Q 384 513 384 1019 
Q 384 1609 779 1909 
Q 1175 2209 1959 2209 
L 2766 2209 
L 2766 2266 
Q 2766 2663 2505 2880 
Q 2244 3097 1772 3097 
Q 1472 3097 1187 3025 
Q 903 2953 641 2809 
L 641 3341 
Q 956 3463 1253 3523 
Q 1550 3584 1831 3584 
Q 2591 3584 2966 3190 
Q 3341 2797 3341 1997 
z
" transform="scale(0.015625)"/>
       <path id="DejaVuSans-6e" d="M 3513 2113 
L 3513 0 
L 2938 0 
L 2938 2094 
Q 2938 2591 2744 2837 
Q 2550 3084 2163 3084 
Q 1697 3084 1428 2787 
Q 1159 2491 1159 1978 
L 1159 0 
L 581 0 
L 581 3500 
L 1159 3500 
L 1159 2956 
Q 1366 3272 1645 3428 
Q 1925 3584 2291 3584 
Q 2894 3584 3203 3211 
Q 3513 2838 3513 2113 
z
" transform="scale(0.015625)"/>
       <path id="DejaVuSans-72" d="M 2631 2963 
Q 2534 3019 2420 3045 
Q 2306 3072 2169 3072 
Q 1681 3072 1420 2755 
Q 1159 2438 1159 1844 
L 1159 0 
L 581 0 
L 581 3500 
L 1159 3500 
L 1159 2956 
Q 1341 3275 1631 3429 
Q 1922 3584 2338 3584 
Q 2397 3584 2469 3576 
Q 2541 3569 2628 3553 
L 2631 2963 
z
" transform="scale(0.015625)"/>
       <path id="DejaVuSans-69" d="M 603 3500 
L 1178 3500 
L 1178 0 
L 603 0 
L 603 3500 
z
M 603 4863 
L 1178 4863 
L 1178 4134 
L 603 4134 
L 603 4863 
z
" transform="scale(0.015625)"/>
       <path id="DejaVuSans-67" d="M 2906 1791 
Q 2906 2416 2648 2759 
Q 2391 3103 1925 3103 
Q 1463 3103 1205 2759 
Q 947 2416 947 1791 
Q 947 1169 1205 825 
Q 1463 481 1925 481 
Q 2391 481 2648 825 
Q 2906 1169 2906 1791 
z
M 3481 434 
Q 3481 -459 3084 -895 
Q 2688 -1331 1869 -1331 
Q 1566 -1331 1297 -1286 
Q 1028 -1241 775 -1147 
L 775 -588 
Q 1028 -725 1275 -790 
Q 1522 -856 1778 -856 
Q 2344 -856 2625 -561 
Q 2906 -266 2906 331 
L 2906 616 
Q 2728 306 2450 153 
Q 2172 0 1784 0 
Q 1141 0 747 490 
Q 353 981 353 1791 
Q 353 2603 747 3093 
Q 1141 3584 1784 3584 
Q 2172 3584 2450 3431 
Q 2728 3278 2906 2969 
L 2906 3500 
L 3481 3500 
L 3481 434 
z
" transform="scale(0.015625)"/>
      </defs>
      <use xlink:href="#DejaVuSans-50"/>
      <use xlink:href="#DejaVuSans-6f" transform="translate(56.677734 0)"/>
      <use xlink:href="#DejaVuSans-6c" transform="translate(117.859375 0)"/>
      <use xlink:href="#DejaVuSans-6c" transform="translate(145.642578 0)"/>
      <use xlink:href="#DejaVuSans-75" transform="translate(173.425781 0)"/>
      <use xlink:href="#DejaVuSans-74" transform="translate(236.804688 0)"/>
      <use xlink:href="#DejaVuSans-61" transform="translate(276.013672 0)"/>
      <use xlink:href="#DejaVuSans-6e" transform="translate(337.292969 0)"/>
      <use xlink:href="#DejaVuSans-74" transform="translate(400.671875 0)"/>
      <use xlink:href="#DejaVuSans-20" transform="translate(439.880859 0)"/>
      <use xlink:href="#DejaVuSans-61" transform="translate(471.667969 0)"/>
      <use xlink:href="#DejaVuSans-6e" transform="translate(532.947266 0)"/>
      <use xlink:href="#DejaVuSans-64" transform="translate(596.326172 0)"/>
      <use xlink:href="#DejaVuSans-20" transform="translate(659.802734 0)"/>
      <use xlink:href="#DejaVuSans-6f" transform="translate(691.589844 0)"/>
      <use xlink:href="#DejaVuSans-70" transform="translate(752.771484 0)"/>
      <use xlink:href="#DejaVuSans-65" transform="translate(816.248047 0)"/>
      <use xlink:href="#DejaVuSans-72" transform="translate(877.771484 0)"/>
      <use xlink:href="#DejaVuSans-61" transform="translate(918.884766 0)"/>
      <use xlink:href="#DejaVuSans-74" transform="translate(980.164062 0)"/>
      <use xlink:href="#DejaVuSans-69" transform="translate(1019.373047 0)"/>
      <use xlink:href="#DejaVuSans-6e" transform="translate(1047.15625 0)"/>
      <use xlink:href="#DejaVuSans-67" transform="translate(1110.535156 0)"/>
      <use xlink:href="#DejaVuSans-20" transform="translate(1174.011719 0)"/>
      <use xlink:href="#DejaVuSans-70" transform="translate(1205.798828 0)"/>
      <use xlink:href="#DejaVuSans-6f" transform="translate(1269.275391 0)"/>
      <use xlink:href="#DejaVuSans-69" transform="translate(1330.457031 0)"/>
      <use xlink:href="#DejaVuSans-6e" transform="translate(1358.240234 0)"/>
      <use xlink:href="#DejaVuSans-74" transform="translate(1421.619141 0)"/>
     </g>
    </g>
   </g>
   <g id="matplotlib.axis_2">
    <g id="ytick_1">
     <g id="line2d_9">
      <path d="M 108 569.844693 
L 777.6 569.844693 
" clip-path="url(#p56a6082e3b)" style="fill: none; stroke-dasharray: 0.8,1.32; stroke-dashoffset: 0; stroke: #c0c0c0; stroke-width: 0.8"/>
     </g>
     <g id="line2d_10">
      <defs>
       <path id="mf4ed12ee0f" d="M 0 0 
L -3.5 0 
" style="stroke: #000000; stroke-width: 0.8"/>
      </defs>
      <g>
       <use xlink:href="#mf4ed12ee0f" x="108" y="569.844693" style="stroke: #000000; stroke-width: 0.8"/>
      </g>
     </g>
     <g id="text_6">
      <!-- 0 -->
      <g transform="translate(92.72875 574.783677) scale(0.13 -0.13)">
       <defs>
        <path id="DejaVuSans-30" d="M 2034 4250 
Q 1547 4250 1301 3770 
Q 1056 3291 1056 2328 
Q 1056 1369 1301 889 
Q 1547 409 2034 409 
Q 2525 409 2770 889 
Q 3016 1369 3016 2328 
Q 3016 3291 2770 3770 
Q 2525 4250 2034 4250 
z
M 2034 4750 
Q 2819 4750 3233 4129 
Q 3647 3509 3647 2328 
Q 3647 1150 3233 529 
Q 2819 -91 2034 -91 
Q 1250 -91 836 529 
Q 422 1150 422 2328 
Q 422 3509 836 4129 
Q 1250 4750 2034 4750 
z
" transform="scale(0.015625)"/>
       </defs>
       <use xlink:href="#DejaVuSans-30"/>
      </g>
     </g>
    </g>
    <g id="ytick_2">
     <g id="line2d_11">
      <path d="M 108 482.040843 
L 777.6 482.040843 
" clip-path="url(#p56a6082e3b)" style="fill: none; stroke-dasharray: 0.8,1.32; stroke-dashoffset: 0; stroke: #c0c0c0; stroke-width: 0.8"/>
     </g>
     <g id="line2d_12">
      <g>
       <use xlink:href="#mf4ed12ee0f" x="108" y="482.040843" style="stroke: #000000; stroke-width: 0.8"/>
      </g>
     </g>
     <g id="text_7">
      <!-- 10 -->
      <g transform="translate(84.4575 486.979827) scale(0.13 -0.13)">
       <defs>
        <path id="DejaVuSans-31" d="M 794 531 
L 1825 531 
L 1825 4091 
L 703 3866 
L 703 4441 
L 1819 4666 
L 2450 4666 
L 2450 531 
L 3481 531 
L 3481 0 
L 794 0 
L 794 531 
z
" transform="scale(0.015625)"/>
       </defs>
       <use xlink:href="#DejaVuSans-31"/>
       <use xlink:href="#DejaVuSans-30" transform="translate(63.623047 0)"/>
      </g>
     </g>
    </g>
    <g id="ytick_3">
     <g id="line2d_13">
      <path d="M 108 394.236992 
L 777.6 394.236992 
" clip-path="url(#p56a6082e3b)" style="fill: none; stroke-dasharray: 0.8,1.32; stroke-dashoffset: 0; stroke: #c0c0c0; stroke-width: 0.8"/>
     </g>
     <g id="line2d_14">
      <g>
       <use xlink:href="#mf4ed12ee0f" x="108" y="394.236992" style="stroke: #000000; stroke-width: 0.8"/>
      </g>
     </g>
     <g id="text_8">
      <!-- 20 -->
      <g transform="translate(84.4575 399.175976) scale(0.13 -0.13)">
       <defs>
        <path id="DejaVuSans-32" d="M 1228 531 
L 3431 531 
L 3431 0 
L 469 0 
L 469 531 
Q 828 903 1448 1529 
Q 2069 2156 2228 2338 
Q 2531 2678 2651 2914 
Q 2772 3150 2772 3378 
Q 2772 3750 2511 3984 
Q 2250 4219 1831 4219 
Q 1534 4219 1204 4116 
Q 875 4013 500 3803 
L 500 4441 
Q 881 4594 1212 4672 
Q 1544 4750 1819 4750 
Q 2544 4750 2975 4387 
Q 3406 4025 3406 3419 
Q 3406 3131 3298 2873 
Q 3191 2616 2906 2266 
Q 2828 2175 2409 1742 
Q 1991 1309 1228 531 
z
" transform="scale(0.015625)"/>
       </defs>
       <use xlink:href="#DejaVuSans-32"/>
       <use xlink:href="#DejaVuSans-30" transform="translate(63.623047 0)"/>
      </g>
     </g>
    </g>
    <g id="ytick_4">
     <g id="line2d_15">
      <path d="M 108 306.433142 
L 777.6 306.433142 
" clip-path="url(#p56a6082e3b)" style="fill: none; stroke-dasharray: 0.8,1.32; stroke-dashoffset: 0; stroke: #c0c0c0; stroke-width: 0.8"/>
     </g>
     <g id="line2d_16">
      <g>
       <use xlink:href="#mf4ed12ee0f" x="108" y="306.433142" style="stroke: #000000; stroke-width: 0.8"/>
      </g>
     </g>
     <g id="text_9">
      <!-- 30 -->
      <g transform="translate(84.4575 311.372126) scale(0.13 -0.13)">
       <defs>
        <path id="DejaVuSans-33" d="M 2597 2516 
Q 3050 2419 3304 2112 
Q 3559 1806 3559 1356 
Q 3559 666 3084 287 
Q 2609 -91 1734 -91 
Q 1441 -91 1130 -33 
Q 819 25 488 141 
L 488 750 
Q 750 597 1062 519 
Q 1375 441 1716 441 
Q 2309 441 2620 675 
Q 2931 909 2931 1356 
Q 2931 1769 2642 2001 
Q 2353 2234 1838 2234 
L 1294 2234 
L 1294 2753 
L 1863 2753 
Q 2328 2753 2575 2939 
Q 2822 3125 2822 3475 
Q 2822 3834 2567 4026 
Q 2313 4219 1838 4219 
Q 1578 4219 1281 4162 
Q 984 4106 628 3988 
L 628 4550 
Q 988 4650 1302 4700 
Q 1616 4750 1894 4750 
Q 2613 4750 3031 4423 
Q 3450 4097 3450 3541 
Q 3450 3153 3228 2886 
Q 3006 2619 2597 2516 
z
" transform="scale(0.015625)"/>
       </defs>
       <use xlink:href="#DejaVuSans-33"/>
       <use xlink:href="#DejaVuSans-30" transform="translate(63.623047 0)"/>
      </g>
     </g>
    </g>
    <g id="ytick_5">
     <g id="line2d_17">
      <path d="M 108 218.629291 
L 777.6 218.629291 
" clip-path="url(#p56a6082e3b)" style="fill: none; stroke-dasharray: 0.8,1.32; stroke-dashoffset: 0; stroke: #c0c0c0; stroke-width: 0.8"/>
     </g>
     <g id="line2d_18">
      <g>
       <use xlink:href="#mf4ed12ee0f" x="108" y="218.629291" style="stroke: #000000; stroke-width: 0.8"/>
      </g>
     </g>
     <g id="text_10">
      <!-- 40 -->
      <g transform="translate(84.4575 223.568275) scale(0.13 -0.13)">
       <defs>
        <path id="DejaVuSans-34" d="M 2419 4116 
L 825 1625 
L 2419 1625 
L 2419 4116 
z
M 2253 4666 
L 3047 4666 
L 3047 1625 
L 3713 1625 
L 3713 1100 
L 3047 1100 
L 3047 0 
L 2419 0 
L 2419 1100 
L 313 1100 
L 313 1709 
L 2253 4666 
z
" transform="scale(0.015625)"/>
       </defs>
       <use xlink:href="#DejaVuSans-34"/>
       <use xlink:href="#DejaVuSans-30" transform="translate(63.623047 0)"/>
      </g>
     </g>
    </g>
    <g id="ytick_6">
     <g id="line2d_19">
      <path d="M 108 130.825441 
L 777.6 130.825441 
" clip-path="url(#p56a6082e3b)" style="fill: none; stroke-dasharray: 0.8,1.32; stroke-dashoffset: 0; stroke: #c0c0c0; stroke-width: 0.8"/>
     </g>
     <g id="line2d_20">
      <g>
       <use xlink:href="#mf4ed12ee0f" x="108" y="130.825441" style="stroke: #000000; stroke-width: 0.8"/>
      </g>
     </g>
     <g id="text_11">
      <!-- 50 -->
      <g transform="translate(84.4575 135.764425) scale(0.13 -0.13)">
       <defs>
        <path id="DejaVuSans-35" d="M 691 4666 
L 3169 4666 
L 3169 4134 
L 1269 4134 
L 1269 2991 
Q 1406 3038 1543 3061 
Q 1681 3084 1819 3084 
Q 2600 3084 3056 2656 
Q 3513 2228 3513 1497 
Q 3513 744 3044 326 
Q 2575 -91 1722 -91 
Q 1428 -91 1123 -41 
Q 819 9 494 109 
L 494 744 
Q 775 591 1075 516 
Q 1375 441 1709 441 
Q 2250 441 2565 725 
Q 2881 1009 2881 1497 
Q 2881 1984 2565 2268 
Q 2250 2553 1709 2553 
Q 1456 2553 1204 2497 
Q 953 2441 691 2322 
L 691 4666 
z
" transform="scale(0.015625)"/>
       </defs>
       <use xlink:href="#DejaVuSans-35"/>
       <use xlink:href="#DejaVuSans-30" transform="translate(63.623047 0)"/>
      </g>
     </g>
    </g>
    <g id="text_12">
     <!-- Emissions index value (g/kg) -->
     <g transform="translate(77.337969 434.917734) rotate(-90) scale(0.15 -0.15)">
      <defs>
       <path id="DejaVuSans-45" d="M 628 4666 
L 3578 4666 
L 3578 4134 
L 1259 4134 
L 1259 2753 
L 3481 2753 
L 3481 2222 
L 1259 2222 
L 1259 531 
L 3634 531 
L 3634 0 
L 628 0 
L 628 4666 
z
" transform="scale(0.015625)"/>
       <path id="DejaVuSans-6d" d="M 3328 2828 
Q 3544 3216 3844 3400 
Q 4144 3584 4550 3584 
Q 5097 3584 5394 3201 
Q 5691 2819 5691 2113 
L 5691 0 
L 5113 0 
L 5113 2094 
Q 5113 2597 4934 2840 
Q 4756 3084 4391 3084 
Q 3944 3084 3684 2787 
Q 3425 2491 3425 1978 
L 3425 0 
L 2847 0 
L 2847 2094 
Q 2847 2600 2669 2842 
Q 2491 3084 2119 3084 
Q 1678 3084 1418 2786 
Q 1159 2488 1159 1978 
L 1159 0 
L 581 0 
L 581 3500 
L 1159 3500 
L 1159 2956 
Q 1356 3278 1631 3431 
Q 1906 3584 2284 3584 
Q 2666 3584 2933 3390 
Q 3200 3197 3328 2828 
z
" transform="scale(0.015625)"/>
       <path id="DejaVuSans-73" d="M 2834 3397 
L 2834 2853 
Q 2591 2978 2328 3040 
Q 2066 3103 1784 3103 
Q 1356 3103 1142 2972 
Q 928 2841 928 2578 
Q 928 2378 1081 2264 
Q 1234 2150 1697 2047 
L 1894 2003 
Q 2506 1872 2764 1633 
Q 3022 1394 3022 966 
Q 3022 478 2636 193 
Q 2250 -91 1575 -91 
Q 1294 -91 989 -36 
Q 684 19 347 128 
L 347 722 
Q 666 556 975 473 
Q 1284 391 1588 391 
Q 1994 391 2212 530 
Q 2431 669 2431 922 
Q 2431 1156 2273 1281 
Q 2116 1406 1581 1522 
L 1381 1569 
Q 847 1681 609 1914 
Q 372 2147 372 2553 
Q 372 3047 722 3315 
Q 1072 3584 1716 3584 
Q 2034 3584 2315 3537 
Q 2597 3491 2834 3397 
z
" transform="scale(0.015625)"/>
       <path id="DejaVuSans-76" d="M 191 3500 
L 800 3500 
L 1894 563 
L 2988 3500 
L 3597 3500 
L 2284 0 
L 1503 0 
L 191 3500 
z
" transform="scale(0.015625)"/>
       <path id="DejaVuSans-28" d="M 1984 4856 
Q 1566 4138 1362 3434 
Q 1159 2731 1159 2009 
Q 1159 1288 1364 580 
Q 1569 -128 1984 -844 
L 1484 -844 
Q 1016 -109 783 600 
Q 550 1309 550 2009 
Q 550 2706 781 3412 
Q 1013 4119 1484 4856 
L 1984 4856 
z
" transform="scale(0.015625)"/>
       <path id="DejaVuSans-6b" d="M 581 4863 
L 1159 4863 
L 1159 1991 
L 2875 3500 
L 3609 3500 
L 1753 1863 
L 3688 0 
L 2938 0 
L 1159 1709 
L 1159 0 
L 581 0 
L 581 4863 
z
" transform="scale(0.015625)"/>
       <path id="DejaVuSans-29" d="M 513 4856 
L 1013 4856 
Q 1481 4119 1714 3412 
Q 1947 2706 1947 2009 
Q 1947 1309 1714 600 
Q 1481 -109 1013 -844 
L 513 -844 
Q 928 -128 1133 580 
Q 1338 1288 1338 2009 
Q 1338 2731 1133 3434 
Q 928 4138 513 4856 
z
" transform="scale(0.015625)"/>
      </defs>
      <use xlink:href="#DejaVuSans-45"/>
      <use xlink:href="#DejaVuSans-6d" transform="translate(63.183594 0)"/>
      <use xlink:href="#DejaVuSans-69" transform="translate(160.595703 0)"/>
      <use xlink:href="#DejaVuSans-73" transform="translate(188.378906 0)"/>
      <use xlink:href="#DejaVuSans-73" transform="translate(240.478516 0)"/>
      <use xlink:href="#DejaVuSans-69" transform="translate(292.578125 0)"/>
      <use xlink:href="#DejaVuSans-6f" transform="translate(320.361328 0)"/>
      <use xlink:href="#DejaVuSans-6e" transform="translate(381.542969 0)"/>
      <use xlink:href="#DejaVuSans-73" transform="translate(444.921875 0)"/>
      <use xlink:href="#DejaVuSans-20" transform="translate(497.021484 0)"/>
      <use xlink:href="#DejaVuSans-69" transform="translate(528.808594 0)"/>
      <use xlink:href="#DejaVuSans-6e" transform="translate(556.591797 0)"/>
      <use xlink:href="#DejaVuSans-64" transform="translate(619.970703 0)"/>
      <use xlink:href="#DejaVuSans-65" transform="translate(683.447266 0)"/>
      <use xlink:href="#DejaVuSans-78" transform="translate(743.220703 0)"/>
      <use xlink:href="#DejaVuSans-20" transform="translate(802.400391 0)"/>
      <use xlink:href="#DejaVuSans-76" transform="translate(834.1875 0)"/>
      <use xlink:href="#DejaVuSans-61" transform="translate(893.367188 0)"/>
      <use xlink:href="#DejaVuSans-6c" transform="translate(954.646484 0)"/>
      <use xlink:href="#DejaVuSans-75" transform="translate(982.429688 0)"/>
      <use xlink:href="#DejaVuSans-65" transform="translate(1045.808594 0)"/>
      <use xlink:href="#DejaVuSans-20" transform="translate(1107.332031 0)"/>
      <use xlink:href="#DejaVuSans-28" transform="translate(1139.119141 0)"/>
      <use xlink:href="#DejaVuSans-67" transform="translate(1178.132812 0)"/>
      <use xlink:href="#DejaVuSans-2f" transform="translate(1241.609375 0)"/>
      <use xlink:href="#DejaVuSans-6b" transform="translate(1275.300781 0)"/>
      <use xlink:href="#DejaVuSans-67" transform="translate(1333.210938 0)"/>
      <use xlink:href="#DejaVuSans-29" transform="translate(1396.6875 0)"/>
     </g>
    </g>
   </g>
   <g id="line2d_21">
    <path d="M 202.512919 539.991384 
L 202.512919 527.523237 
" clip-path="url(#p56a6082e3b)" style="fill: none; stroke: #262626; stroke-width: 1.875; stroke-linecap: square"/>
   </g>
   <g id="line2d_22">
    <path d="M 202.512919 535.162172 
L 202.512919 531.562214 
" clip-path="url(#p56a6082e3b)" style="fill: none; stroke: #262626; stroke-width: 5.625; stroke-linecap: square"/>
   </g>
   <g id="line2d_23">
    <path d="M 202.512919 532.352449 
" clip-path="url(#p56a6082e3b)" style="fill: none; stroke: #262626; stroke-width: 1.5; stroke-linecap: square"/>
    <defs>
     <path id="mb8ce6e115e" d="M 2.34375 0 
L -2.34375 -0 
" style="stroke: #ffffff; stroke-width: 1.125"/>
    </defs>
    <g clip-path="url(#p56a6082e3b)">
     <use xlink:href="#mb8ce6e115e" x="202.512919" y="532.352449" style="fill: #ffffff; stroke: #ffffff; stroke-width: 1.125"/>
    </g>
   </g>
   <g id="line2d_24">
    <path d="M 362.704306 453.504591 
L 362.704306 239.087588 
" clip-path="url(#p56a6082e3b)" style="fill: none; stroke: #262626; stroke-width: 1.875; stroke-linecap: square"/>
   </g>
   <g id="line2d_25">
    <path d="M 362.704306 407.627079 
L 362.704306 339.974212 
" clip-path="url(#p56a6082e3b)" style="fill: none; stroke: #262626; stroke-width: 5.625; stroke-linecap: square"/>
   </g>
   <g id="line2d_26">
    <path d="M 362.704306 378.520103 
" clip-path="url(#p56a6082e3b)" style="fill: none; stroke: #262626; stroke-width: 1.5; stroke-linecap: square"/>
    <g clip-path="url(#p56a6082e3b)">
     <use xlink:href="#mb8ce6e115e" x="362.704306" y="378.520103" style="fill: #ffffff; stroke: #ffffff; stroke-width: 1.125"/>
    </g>
   </g>
   <g id="line2d_27">
    <path d="M 522.895694 478.440885 
L 522.895694 339.798605 
" clip-path="url(#p56a6082e3b)" style="fill: none; stroke: #262626; stroke-width: 1.875; stroke-linecap: square"/>
   </g>
   <g id="line2d_28">
    <path d="M 522.895694 438.995005 
L 522.895694 397.749146 
" clip-path="url(#p56a6082e3b)" style="fill: none; stroke: #262626; stroke-width: 5.625; stroke-linecap: square"/>
   </g>
   <g id="line2d_29">
    <path d="M 522.895694 418.558659 
" clip-path="url(#p56a6082e3b)" style="fill: none; stroke: #262626; stroke-width: 1.5; stroke-linecap: square"/>
    <g clip-path="url(#p56a6082e3b)">
     <use xlink:href="#mb8ce6e115e" x="522.895694" y="418.558659" style="fill: #ffffff; stroke: #ffffff; stroke-width: 1.125"/>
    </g>
   </g>
   <g id="line2d_30">
    <path d="M 683.087081 508.20639 
L 683.087081 475.894573 
" clip-path="url(#p56a6082e3b)" style="fill: none; stroke: #262626; stroke-width: 1.875; stroke-linecap: square"/>
   </g>
   <g id="line2d_31">
    <path d="M 683.087081 497.055301 
L 683.087081 488.318818 
" clip-path="url(#p56a6082e3b)" style="fill: none; stroke: #262626; stroke-width: 5.625; stroke-linecap: square"/>
   </g>
   <g id="line2d_32">
    <path d="M 683.087081 491.435855 
" clip-path="url(#p56a6082e3b)" style="fill: none; stroke: #262626; stroke-width: 1.5; stroke-linecap: square"/>
    <g clip-path="url(#p56a6082e3b)">
     <use xlink:href="#mb8ce6e115e" x="683.087081" y="491.435855" style="fill: #ffffff; stroke: #ffffff; stroke-width: 1.125"/>
    </g>
   </g>
   <g id="line2d_33">
    <path d="M 202.512919 441.531847 
L 362.704306 100.44 
L 522.895694 171.641738 
L 683.087081 359.468864 
" clip-path="url(#p56a6082e3b)" style="fill: none; stroke-dasharray: 5.55,2.4; stroke-dashoffset: 0; stroke: #1f77b4; stroke-width: 1.5"/>
    <defs>
     <path id="mf065f6121d" d="M 5 0 
L -5 -5 
L -5 5 
z
" style="stroke: #1f77b4; stroke-linejoin: miter"/>
    </defs>
    <g clip-path="url(#p56a6082e3b)">
     <use xlink:href="#mf065f6121d" x="202.512919" y="441.531847" style="fill: #1f77b4; stroke: #1f77b4; stroke-linejoin: miter"/>
     <use xlink:href="#mf065f6121d" x="362.704306" y="100.44" style="fill: #1f77b4; stroke: #1f77b4; stroke-linejoin: miter"/>
     <use xlink:href="#mf065f6121d" x="522.895694" y="171.641738" style="fill: #1f77b4; stroke: #1f77b4; stroke-linejoin: miter"/>
     <use xlink:href="#mf065f6121d" x="683.087081" y="359.468864" style="fill: #1f77b4; stroke: #1f77b4; stroke-linejoin: miter"/>
    </g>
   </g>
   <g id="line2d_34">
    <path d="M 202.512919 351.410478 
L 362.704306 330.28424 
L 522.895694 339.654655 
L 683.087081 368.120673 
" clip-path="url(#p56a6082e3b)" style="fill: none; stroke-dasharray: 5.55,2.4; stroke-dashoffset: 0; stroke: #ff7f0e; stroke-width: 1.5"/>
    <defs>
     <path id="m3d40a5ad8e" d="M 5 0 
L -5 -5 
L -5 5 
z
" style="stroke: #ff7f0e; stroke-linejoin: miter"/>
    </defs>
    <g clip-path="url(#p56a6082e3b)">
     <use xlink:href="#m3d40a5ad8e" x="202.512919" y="351.410478" style="fill: #ff7f0e; stroke: #ff7f0e; stroke-linejoin: miter"/>
     <use xlink:href="#m3d40a5ad8e" x="362.704306" y="330.28424" style="fill: #ff7f0e; stroke: #ff7f0e; stroke-linejoin: miter"/>
     <use xlink:href="#m3d40a5ad8e" x="522.895694" y="339.654655" style="fill: #ff7f0e; stroke: #ff7f0e; stroke-linejoin: miter"/>
     <use xlink:href="#m3d40a5ad8e" x="683.087081" y="368.120673" style="fill: #ff7f0e; stroke: #ff7f0e; stroke-linejoin: miter"/>
    </g>
   </g>
   <g id="line2d_35">
    <path d="M 202.512919 321.897395 
L 362.704306 306.875059 
L 522.895694 312.604587 
L 683.087081 332.329768 
" clip-path="url(#p56a6082e3b)" style="fill: none; stroke-dasharray: 5.55,2.4; stroke-dashoffset: 0; stroke: #2ca02c; stroke-width: 1.5"/>
    <defs>
     <path id="m15b71efa6e" d="M 5 0 
L -5 -5 
L -5 5 
z
" style="stroke: #2ca02c; stroke-linejoin: miter"/>
    </defs>
    <g clip-path="url(#p56a6082e3b)">
     <use xlink:href="#m15b71efa6e" x="202.512919" y="321.897395" style="fill: #2ca02c; stroke: #2ca02c; stroke-linejoin: miter"/>
     <use xlink:href="#m15b71efa6e" x="362.704306" y="306.875059" style="fill: #2ca02c; stroke: #2ca02c; stroke-linejoin: miter"/>
     <use xlink:href="#m15b71efa6e" x="522.895694" y="312.604587" style="fill: #2ca02c; stroke: #2ca02c; stroke-linejoin: miter"/>
     <use xlink:href="#m15b71efa6e" x="683.087081" y="332.329768" style="fill: #2ca02c; stroke: #2ca02c; stroke-linejoin: miter"/>
    </g>
   </g>
   <g id="line2d_36">
    <path d="M 202.512919 305.233982 
L 362.704306 280.110154 
L 522.895694 291.190109 
L 683.087081 325.580289 
" clip-path="url(#p56a6082e3b)" style="fill: none; stroke-dasharray: 5.55,2.4; stroke-dashoffset: 0; stroke: #d62728; stroke-width: 1.5"/>
    <defs>
     <path id="mc417ba38bf" d="M 5 0 
L -5 -5 
L -5 5 
z
" style="stroke: #d62728; stroke-linejoin: miter"/>
    </defs>
    <g clip-path="url(#p56a6082e3b)">
     <use xlink:href="#mc417ba38bf" x="202.512919" y="305.233982" style="fill: #d62728; stroke: #d62728; stroke-linejoin: miter"/>
     <use xlink:href="#mc417ba38bf" x="362.704306" y="280.110154" style="fill: #d62728; stroke: #d62728; stroke-linejoin: miter"/>
     <use xlink:href="#mc417ba38bf" x="522.895694" y="291.190109" style="fill: #d62728; stroke: #d62728; stroke-linejoin: miter"/>
     <use xlink:href="#mc417ba38bf" x="683.087081" y="325.580289" style="fill: #d62728; stroke: #d62728; stroke-linejoin: miter"/>
    </g>
   </g>
   <g id="line2d_37">
    <path d="M 202.512919 523.405237 
L 362.704306 284.842175 
L 522.895694 327.848501 
L 683.087081 469.045873 
" clip-path="url(#p56a6082e3b)" style="fill: none; stroke-dasharray: 5.55,2.4; stroke-dashoffset: 0; stroke: #9467bd; stroke-width: 1.5"/>
    <defs>
     <path id="mc5210005d7" d="M 5 0 
L -5 -5 
L -5 5 
z
" style="stroke: #9467bd; stroke-linejoin: miter"/>
    </defs>
    <g clip-path="url(#p56a6082e3b)">
     <use xlink:href="#mc5210005d7" x="202.512919" y="523.405237" style="fill: #9467bd; stroke: #9467bd; stroke-linejoin: miter"/>
     <use xlink:href="#mc5210005d7" x="362.704306" y="284.842175" style="fill: #9467bd; stroke: #9467bd; stroke-linejoin: miter"/>
     <use xlink:href="#mc5210005d7" x="522.895694" y="327.848501" style="fill: #9467bd; stroke: #9467bd; stroke-linejoin: miter"/>
     <use xlink:href="#mc5210005d7" x="683.087081" y="469.045873" style="fill: #9467bd; stroke: #9467bd; stroke-linejoin: miter"/>
    </g>
   </g>
   <g id="patch_3">
    <path d="M 108 576.72 
L 108 77.76 
" style="fill: none; stroke: #000000; stroke-width: 0.8; stroke-linejoin: miter; stroke-linecap: square"/>
   </g>
   <g id="patch_4">
    <path d="M 777.6 576.72 
L 777.6 77.76 
" style="fill: none; stroke: #000000; stroke-width: 0.8; stroke-linejoin: miter; stroke-linecap: square"/>
   </g>
   <g id="patch_5">
    <path d="M 108 576.72 
L 777.6 576.72 
" style="fill: none; stroke: #000000; stroke-width: 0.8; stroke-linejoin: miter; stroke-linecap: square"/>
   </g>
   <g id="patch_6">
    <path d="M 108 77.76 
L 777.6 77.76 
" style="fill: none; stroke: #000000; stroke-width: 0.8; stroke-linejoin: miter; stroke-linecap: square"/>
   </g>
   <g id="text_13">
    <!-- NOx EI over engine operation points - Dot plot - CFM56 family -->
    <g transform="translate(175.21245 71.76) scale(0.1728 -0.1728)">
     <defs>
      <path id="DejaVuSans-2d" d="M 313 2009 
L 1997 2009 
L 1997 1497 
L 313 1497 
L 313 2009 
z
" transform="scale(0.015625)"/>
      <path id="DejaVuSans-44" d="M 1259 4147 
L 1259 519 
L 2022 519 
Q 2988 519 3436 956 
Q 3884 1394 3884 2338 
Q 3884 3275 3436 3711 
Q 2988 4147 2022 4147 
L 1259 4147 
z
M 628 4666 
L 1925 4666 
Q 3281 4666 3915 4102 
Q 4550 3538 4550 2338 
Q 4550 1131 3912 565 
Q 3275 0 1925 0 
L 628 0 
L 628 4666 
z
" transform="scale(0.015625)"/>
      <path id="DejaVuSans-46" d="M 628 4666 
L 3309 4666 
L 3309 4134 
L 1259 4134 
L 1259 2759 
L 3109 2759 
L 3109 2228 
L 1259 2228 
L 1259 0 
L 628 0 
L 628 4666 
z
" transform="scale(0.015625)"/>
      <path id="DejaVuSans-4d" d="M 628 4666 
L 1569 4666 
L 2759 1491 
L 3956 4666 
L 4897 4666 
L 4897 0 
L 4281 0 
L 4281 4097 
L 3078 897 
L 2444 897 
L 1241 4097 
L 1241 0 
L 628 0 
L 628 4666 
z
" transform="scale(0.015625)"/>
      <path id="DejaVuSans-36" d="M 2113 2584 
Q 1688 2584 1439 2293 
Q 1191 2003 1191 1497 
Q 1191 994 1439 701 
Q 1688 409 2113 409 
Q 2538 409 2786 701 
Q 3034 994 3034 1497 
Q 3034 2003 2786 2293 
Q 2538 2584 2113 2584 
z
M 3366 4563 
L 3366 3988 
Q 3128 4100 2886 4159 
Q 2644 4219 2406 4219 
Q 1781 4219 1451 3797 
Q 1122 3375 1075 2522 
Q 1259 2794 1537 2939 
Q 1816 3084 2150 3084 
Q 2853 3084 3261 2657 
Q 3669 2231 3669 1497 
Q 3669 778 3244 343 
Q 2819 -91 2113 -91 
Q 1303 -91 875 529 
Q 447 1150 447 2328 
Q 447 3434 972 4092 
Q 1497 4750 2381 4750 
Q 2619 4750 2861 4703 
Q 3103 4656 3366 4563 
z
" transform="scale(0.015625)"/>
      <path id="DejaVuSans-66" d="M 2375 4863 
L 2375 4384 
L 1825 4384 
Q 1516 4384 1395 4259 
Q 1275 4134 1275 3809 
L 1275 3500 
L 2222 3500 
L 2222 3053 
L 1275 3053 
L 1275 0 
L 697 0 
L 697 3053 
L 147 3053 
L 147 3500 
L 697 3500 
L 697 3744 
Q 697 4328 969 4595 
Q 1241 4863 1831 4863 
L 2375 4863 
z
" transform="scale(0.015625)"/>
      <path id="DejaVuSans-79" d="M 2059 -325 
Q 1816 -950 1584 -1140 
Q 1353 -1331 966 -1331 
L 506 -1331 
L 506 -850 
L 844 -850 
Q 1081 -850 1212 -737 
Q 1344 -625 1503 -206 
L 1606 56 
L 191 3500 
L 800 3500 
L 1894 763 
L 2988 3500 
L 3597 3500 
L 2059 -325 
z
" transform="scale(0.015625)"/>
     </defs>
     <use xlink:href="#DejaVuSans-4e"/>
     <use xlink:href="#DejaVuSans-4f" transform="translate(74.804688 0)"/>
     <use xlink:href="#DejaVuSans-78" transform="translate(153.515625 0)"/>
     <use xlink:href="#DejaVuSans-20" transform="translate(212.695312 0)"/>
     <use xlink:href="#DejaVuSans-45" transform="translate(244.482422 0)"/>
     <use xlink:href="#DejaVuSans-49" transform="translate(307.666016 0)"/>
     <use xlink:href="#DejaVuSans-20" transform="translate(337.158203 0)"/>
     <use xlink:href="#DejaVuSans-6f" transform="translate(368.945312 0)"/>
     <use xlink:href="#DejaVuSans-76" transform="translate(430.126953 0)"/>
     <use xlink:href="#DejaVuSans-65" transform="translate(489.306641 0)"/>
     <use xlink:href="#DejaVuSans-72" transform="translate(550.830078 0)"/>
     <use xlink:href="#DejaVuSans-20" transform="translate(591.943359 0)"/>
     <use xlink:href="#DejaVuSans-65" transform="translate(623.730469 0)"/>
     <use xlink:href="#DejaVuSans-6e" transform="translate(685.253906 0)"/>
     <use xlink:href="#DejaVuSans-67" transform="translate(748.632812 0)"/>
     <use xlink:href="#DejaVuSans-69" transform="translate(812.109375 0)"/>
     <use xlink:href="#DejaVuSans-6e" transform="translate(839.892578 0)"/>
     <use xlink:href="#DejaVuSans-65" transform="translate(903.271484 0)"/>
     <use xlink:href="#DejaVuSans-20" transform="translate(964.794922 0)"/>
     <use xlink:href="#DejaVuSans-6f" transform="translate(996.582031 0)"/>
     <use xlink:href="#DejaVuSans-70" transform="translate(1057.763672 0)"/>
     <use xlink:href="#DejaVuSans-65" transform="translate(1121.240234 0)"/>
     <use xlink:href="#DejaVuSans-72" transform="translate(1182.763672 0)"/>
     <use xlink:href="#DejaVuSans-61" transform="translate(1223.876953 0)"/>
     <use xlink:href="#DejaVuSans-74" transform="translate(1285.15625 0)"/>
     <use xlink:href="#DejaVuSans-69" transform="translate(1324.365234 0)"/>
     <use xlink:href="#DejaVuSans-6f" transform="translate(1352.148438 0)"/>
     <use xlink:href="#DejaVuSans-6e" transform="translate(1413.330078 0)"/>
     <use xlink:href="#DejaVuSans-20" transform="translate(1476.708984 0)"/>
     <use xlink:href="#DejaVuSans-70" transform="translate(1508.496094 0)"/>
     <use xlink:href="#DejaVuSans-6f" transform="translate(1571.972656 0)"/>
     <use xlink:href="#DejaVuSans-69" transform="translate(1633.154297 0)"/>
     <use xlink:href="#DejaVuSans-6e" transform="translate(1660.9375 0)"/>
     <use xlink:href="#DejaVuSans-74" transform="translate(1724.316406 0)"/>
     <use xlink:href="#DejaVuSans-73" transform="translate(1763.525391 0)"/>
     <use xlink:href="#DejaVuSans-20" transform="translate(1815.625 0)"/>
     <use xlink:href="#DejaVuSans-2d" transform="translate(1847.412109 0)"/>
     <use xlink:href="#DejaVuSans-20" transform="translate(1883.496094 0)"/>
     <use xlink:href="#DejaVuSans-44" transform="translate(1915.283203 0)"/>
     <use xlink:href="#DejaVuSans-6f" transform="translate(1992.285156 0)"/>
     <use xlink:href="#DejaVuSans-74" transform="translate(2053.466797 0)"/>
     <use xlink:href="#DejaVuSans-20" transform="translate(2092.675781 0)"/>
     <use xlink:href="#DejaVuSans-70" transform="translate(2124.462891 0)"/>
     <use xlink:href="#DejaVuSans-6c" transform="translate(2187.939453 0)"/>
     <use xlink:href="#DejaVuSans-6f" transform="translate(2215.722656 0)"/>
     <use xlink:href="#DejaVuSans-74" transform="translate(2276.904297 0)"/>
     <use xlink:href="#DejaVuSans-20" transform="translate(2316.113281 0)"/>
     <use xlink:href="#DejaVuSans-2d" transform="translate(2347.900391 0)"/>
     <use xlink:href="#DejaVuSans-20" transform="translate(2383.984375 0)"/>
     <use xlink:href="#DejaVuSans-43" transform="translate(2415.771484 0)"/>
     <use xlink:href="#DejaVuSans-46" transform="translate(2485.595703 0)"/>
     <use xlink:href="#DejaVuSans-4d" transform="translate(2543.115234 0)"/>
     <use xlink:href="#DejaVuSans-35" transform="translate(2629.394531 0)"/>
     <use xlink:href="#DejaVuSans-36" transform="translate(2693.017578 0)"/>
     <use xlink:href="#DejaVuSans-20" transform="translate(2756.640625 0)"/>
     <use xlink:href="#DejaVuSans-66" transform="translate(2788.427734 0)"/>
     <use xlink:href="#DejaVuSans-61" transform="translate(2823.632812 0)"/>
     <use xlink:href="#DejaVuSans-6d" transform="translate(2884.912109 0)"/>
     <use xlink:href="#DejaVuSans-69" transform="translate(2982.324219 0)"/>
     <use xlink:href="#DejaVuSans-6c" transform="translate(3010.107422 0)"/>
     <use xlink:href="#DejaVuSans-79" transform="translate(3037.890625 0)"/>
    </g>
   </g>
   <g id="legend_1">
    <g id="patch_7">
     <path d="M 551.9475 228.27 
L 769.2 228.27 
Q 771.6 228.27 771.6 225.87 
L 771.6 86.16 
Q 771.6 83.76 769.2 83.76 
L 551.9475 83.76 
Q 549.5475 83.76 549.5475 86.16 
L 549.5475 225.87 
Q 549.5475 228.27 551.9475 228.27 
z
" style="fill: #ffffff; opacity: 0.8; stroke: #cccccc; stroke-linejoin: miter"/>
    </g>
    <g id="line2d_38">
     <path d="M 554.3475 93.478125 
L 566.3475 93.478125 
L 578.3475 93.478125 
" style="fill: none; stroke-dasharray: 5.55,2.4; stroke-dashoffset: 0; stroke: #000000; stroke-width: 1.5"/>
     <defs>
      <path id="mf32a38c582" d="M 0 -5 
L -1.12257 -1.545085 
L -4.755283 -1.545085 
L -1.816356 0.59017 
L -2.938926 4.045085 
L -0 1.90983 
L 2.938926 4.045085 
L 1.816356 0.59017 
L 4.755283 -1.545085 
L 1.12257 -1.545085 
z
" style="stroke: #000000; stroke-linejoin: bevel"/>
     </defs>
     <g>
      <use xlink:href="#mf32a38c582" x="566.3475" y="93.478125" style="stroke: #000000; stroke-linejoin: bevel"/>
     </g>
    </g>
    <g id="text_14">
     <!-- Mean values - ICAO Databank -->
     <g transform="translate(587.9475 97.678125) scale(0.12 -0.12)">
      <defs>
       <path id="DejaVuSans-62" d="M 3116 1747 
Q 3116 2381 2855 2742 
Q 2594 3103 2138 3103 
Q 1681 3103 1420 2742 
Q 1159 2381 1159 1747 
Q 1159 1113 1420 752 
Q 1681 391 2138 391 
Q 2594 391 2855 752 
Q 3116 1113 3116 1747 
z
M 1159 2969 
Q 1341 3281 1617 3432 
Q 1894 3584 2278 3584 
Q 2916 3584 3314 3078 
Q 3713 2572 3713 1747 
Q 3713 922 3314 415 
Q 2916 -91 2278 -91 
Q 1894 -91 1617 61 
Q 1341 213 1159 525 
L 1159 0 
L 581 0 
L 581 4863 
L 1159 4863 
L 1159 2969 
z
" transform="scale(0.015625)"/>
      </defs>
      <use xlink:href="#DejaVuSans-4d"/>
      <use xlink:href="#DejaVuSans-65" transform="translate(86.279297 0)"/>
      <use xlink:href="#DejaVuSans-61" transform="translate(147.802734 0)"/>
      <use xlink:href="#DejaVuSans-6e" transform="translate(209.082031 0)"/>
      <use xlink:href="#DejaVuSans-20" transform="translate(272.460938 0)"/>
      <use xlink:href="#DejaVuSans-76" transform="translate(304.248047 0)"/>
      <use xlink:href="#DejaVuSans-61" transform="translate(363.427734 0)"/>
      <use xlink:href="#DejaVuSans-6c" transform="translate(424.707031 0)"/>
      <use xlink:href="#DejaVuSans-75" transform="translate(452.490234 0)"/>
      <use xlink:href="#DejaVuSans-65" transform="translate(515.869141 0)"/>
      <use xlink:href="#DejaVuSans-73" transform="translate(577.392578 0)"/>
      <use xlink:href="#DejaVuSans-20" transform="translate(629.492188 0)"/>
      <use xlink:href="#DejaVuSans-2d" transform="translate(661.279297 0)"/>
      <use xlink:href="#DejaVuSans-20" transform="translate(697.363281 0)"/>
      <use xlink:href="#DejaVuSans-49" transform="translate(729.150391 0)"/>
      <use xlink:href="#DejaVuSans-43" transform="translate(758.642578 0)"/>
      <use xlink:href="#DejaVuSans-41" transform="translate(828.466797 0)"/>
      <use xlink:href="#DejaVuSans-4f" transform="translate(895.125 0)"/>
      <use xlink:href="#DejaVuSans-20" transform="translate(973.835938 0)"/>
      <use xlink:href="#DejaVuSans-44" transform="translate(1005.623047 0)"/>
      <use xlink:href="#DejaVuSans-61" transform="translate(1082.625 0)"/>
      <use xlink:href="#DejaVuSans-74" transform="translate(1143.904297 0)"/>
      <use xlink:href="#DejaVuSans-61" transform="translate(1183.113281 0)"/>
      <use xlink:href="#DejaVuSans-62" transform="translate(1244.392578 0)"/>
      <use xlink:href="#DejaVuSans-61" transform="translate(1307.869141 0)"/>
      <use xlink:href="#DejaVuSans-6e" transform="translate(1369.148438 0)"/>
      <use xlink:href="#DejaVuSans-6b" transform="translate(1432.527344 0)"/>
     </g>
    </g>
    <g id="line2d_39">
     <path d="M 554.3475 111.091875 
L 566.3475 111.091875 
L 578.3475 111.091875 
" style="fill: none; stroke-dasharray: 5.55,2.4; stroke-dashoffset: 0; stroke: #1f77b4; stroke-width: 1.5"/>
     <g>
      <use xlink:href="#mf065f6121d" x="566.3475" y="111.091875" style="fill: #1f77b4; stroke: #1f77b4; stroke-linejoin: miter"/>
     </g>
    </g>
    <g id="text_15">
     <!-- Rokke -->
     <g transform="translate(587.9475 115.291875) scale(0.12 -0.12)">
      <defs>
       <path id="DejaVuSans-52" d="M 2841 2188 
Q 3044 2119 3236 1894 
Q 3428 1669 3622 1275 
L 4263 0 
L 3584 0 
L 2988 1197 
Q 2756 1666 2539 1819 
Q 2322 1972 1947 1972 
L 1259 1972 
L 1259 0 
L 628 0 
L 628 4666 
L 2053 4666 
Q 2853 4666 3247 4331 
Q 3641 3997 3641 3322 
Q 3641 2881 3436 2590 
Q 3231 2300 2841 2188 
z
M 1259 4147 
L 1259 2491 
L 2053 2491 
Q 2509 2491 2742 2702 
Q 2975 2913 2975 3322 
Q 2975 3731 2742 3939 
Q 2509 4147 2053 4147 
L 1259 4147 
z
" transform="scale(0.015625)"/>
      </defs>
      <use xlink:href="#DejaVuSans-52"/>
      <use xlink:href="#DejaVuSans-6f" transform="translate(64.982422 0)"/>
      <use xlink:href="#DejaVuSans-6b" transform="translate(126.164062 0)"/>
      <use xlink:href="#DejaVuSans-6b" transform="translate(184.074219 0)"/>
      <use xlink:href="#DejaVuSans-65" transform="translate(238.359375 0)"/>
     </g>
    </g>
    <g id="line2d_40">
     <path d="M 554.3475 128.705625 
L 566.3475 128.705625 
L 578.3475 128.705625 
" style="fill: none; stroke-dasharray: 5.55,2.4; stroke-dashoffset: 0; stroke: #ff7f0e; stroke-width: 1.5"/>
     <g>
      <use xlink:href="#m3d40a5ad8e" x="566.3475" y="128.705625" style="fill: #ff7f0e; stroke: #ff7f0e; stroke-linejoin: miter"/>
     </g>
    </g>
    <g id="text_16">
     <!-- Kyprianidis -->
     <g transform="translate(587.9475 132.905625) scale(0.12 -0.12)">
      <defs>
       <path id="DejaVuSans-4b" d="M 628 4666 
L 1259 4666 
L 1259 2694 
L 3353 4666 
L 4166 4666 
L 1850 2491 
L 4331 0 
L 3500 0 
L 1259 2247 
L 1259 0 
L 628 0 
L 628 4666 
z
" transform="scale(0.015625)"/>
      </defs>
      <use xlink:href="#DejaVuSans-4b"/>
      <use xlink:href="#DejaVuSans-79" transform="translate(58.326172 0)"/>
      <use xlink:href="#DejaVuSans-70" transform="translate(117.505859 0)"/>
      <use xlink:href="#DejaVuSans-72" transform="translate(180.982422 0)"/>
      <use xlink:href="#DejaVuSans-69" transform="translate(222.095703 0)"/>
      <use xlink:href="#DejaVuSans-61" transform="translate(249.878906 0)"/>
      <use xlink:href="#DejaVuSans-6e" transform="translate(311.158203 0)"/>
      <use xlink:href="#DejaVuSans-69" transform="translate(374.537109 0)"/>
      <use xlink:href="#DejaVuSans-64" transform="translate(402.320312 0)"/>
      <use xlink:href="#DejaVuSans-69" transform="translate(465.796875 0)"/>
      <use xlink:href="#DejaVuSans-73" transform="translate(493.580078 0)"/>
     </g>
    </g>
    <g id="line2d_41">
     <path d="M 554.3475 146.319375 
L 566.3475 146.319375 
L 578.3475 146.319375 
" style="fill: none; stroke-dasharray: 5.55,2.4; stroke-dashoffset: 0; stroke: #2ca02c; stroke-width: 1.5"/>
     <g>
      <use xlink:href="#m15b71efa6e" x="566.3475" y="146.319375" style="fill: #2ca02c; stroke: #2ca02c; stroke-linejoin: miter"/>
     </g>
    </g>
    <g id="text_17">
     <!-- Novelo -->
     <g transform="translate(587.9475 150.519375) scale(0.12 -0.12)">
      <use xlink:href="#DejaVuSans-4e"/>
      <use xlink:href="#DejaVuSans-6f" transform="translate(74.804688 0)"/>
      <use xlink:href="#DejaVuSans-76" transform="translate(135.986328 0)"/>
      <use xlink:href="#DejaVuSans-65" transform="translate(195.166016 0)"/>
      <use xlink:href="#DejaVuSans-6c" transform="translate(256.689453 0)"/>
      <use xlink:href="#DejaVuSans-6f" transform="translate(284.472656 0)"/>
     </g>
    </g>
    <g id="line2d_42">
     <path d="M 554.3475 163.933125 
L 566.3475 163.933125 
L 578.3475 163.933125 
" style="fill: none; stroke-dasharray: 5.55,2.4; stroke-dashoffset: 0; stroke: #d62728; stroke-width: 1.5"/>
     <g>
      <use xlink:href="#mc417ba38bf" x="566.3475" y="163.933125" style="fill: #d62728; stroke: #d62728; stroke-linejoin: miter"/>
     </g>
    </g>
    <g id="text_18">
     <!-- GasTurb -->
     <g transform="translate(587.9475 168.133125) scale(0.12 -0.12)">
      <defs>
       <path id="DejaVuSans-47" d="M 3809 666 
L 3809 1919 
L 2778 1919 
L 2778 2438 
L 4434 2438 
L 4434 434 
Q 4069 175 3628 42 
Q 3188 -91 2688 -91 
Q 1594 -91 976 548 
Q 359 1188 359 2328 
Q 359 3472 976 4111 
Q 1594 4750 2688 4750 
Q 3144 4750 3555 4637 
Q 3966 4525 4313 4306 
L 4313 3634 
Q 3963 3931 3569 4081 
Q 3175 4231 2741 4231 
Q 1884 4231 1454 3753 
Q 1025 3275 1025 2328 
Q 1025 1384 1454 906 
Q 1884 428 2741 428 
Q 3075 428 3337 486 
Q 3600 544 3809 666 
z
" transform="scale(0.015625)"/>
      </defs>
      <use xlink:href="#DejaVuSans-47"/>
      <use xlink:href="#DejaVuSans-61" transform="translate(77.490234 0)"/>
      <use xlink:href="#DejaVuSans-73" transform="translate(138.769531 0)"/>
      <use xlink:href="#DejaVuSans-54" transform="translate(190.869141 0)"/>
      <use xlink:href="#DejaVuSans-75" transform="translate(236.828125 0)"/>
      <use xlink:href="#DejaVuSans-72" transform="translate(300.207031 0)"/>
      <use xlink:href="#DejaVuSans-62" transform="translate(341.320312 0)"/>
     </g>
    </g>
    <g id="line2d_43">
     <path d="M 554.3475 181.546875 
L 566.3475 181.546875 
L 578.3475 181.546875 
" style="fill: none; stroke-dasharray: 5.55,2.4; stroke-dashoffset: 0; stroke: #9467bd; stroke-width: 1.5"/>
     <g>
      <use xlink:href="#mc5210005d7" x="566.3475" y="181.546875" style="fill: #9467bd; stroke: #9467bd; stroke-linejoin: miter"/>
     </g>
    </g>
    <g id="text_19">
     <!-- DLR Fuel Flow -->
     <g transform="translate(587.9475 185.746875) scale(0.12 -0.12)">
      <defs>
       <path id="DejaVuSans-4c" d="M 628 4666 
L 1259 4666 
L 1259 531 
L 3531 531 
L 3531 0 
L 628 0 
L 628 4666 
z
" transform="scale(0.015625)"/>
       <path id="DejaVuSans-77" d="M 269 3500 
L 844 3500 
L 1563 769 
L 2278 3500 
L 2956 3500 
L 3675 769 
L 4391 3500 
L 4966 3500 
L 4050 0 
L 3372 0 
L 2619 2869 
L 1863 0 
L 1184 0 
L 269 3500 
z
" transform="scale(0.015625)"/>
      </defs>
      <use xlink:href="#DejaVuSans-44"/>
      <use xlink:href="#DejaVuSans-4c" transform="translate(77.001953 0)"/>
      <use xlink:href="#DejaVuSans-52" transform="translate(132.714844 0)"/>
      <use xlink:href="#DejaVuSans-20" transform="translate(202.197266 0)"/>
      <use xlink:href="#DejaVuSans-46" transform="translate(233.984375 0)"/>
      <use xlink:href="#DejaVuSans-75" transform="translate(286.003906 0)"/>
      <use xlink:href="#DejaVuSans-65" transform="translate(349.382812 0)"/>
      <use xlink:href="#DejaVuSans-6c" transform="translate(410.90625 0)"/>
      <use xlink:href="#DejaVuSans-20" transform="translate(438.689453 0)"/>
      <use xlink:href="#DejaVuSans-46" transform="translate(470.476562 0)"/>
      <use xlink:href="#DejaVuSans-6c" transform="translate(527.996094 0)"/>
      <use xlink:href="#DejaVuSans-6f" transform="translate(555.779297 0)"/>
      <use xlink:href="#DejaVuSans-77" transform="translate(616.960938 0)"/>
     </g>
    </g>
    <g id="line2d_44">
     <path d="M 554.3475 199.160625 
L 566.3475 199.160625 
L 578.3475 199.160625 
" style="fill: none; stroke-dasharray: 9.6,2.4,1.5,2.4; stroke-dashoffset: 0; stroke: #adff2f; stroke-width: 1.5"/>
     <defs>
      <path id="mada47172a4" d="M 0 7.071068 
L 4.242641 0 
L 0 -7.071068 
L -4.242641 0 
z
" style="stroke: #adff2f; stroke-linejoin: miter"/>
     </defs>
     <g>
      <use xlink:href="#mada47172a4" x="566.3475" y="199.160625" style="fill: #adff2f; stroke: #adff2f; stroke-linejoin: miter"/>
     </g>
    </g>
    <g id="text_20">
     <!-- Polynomial (2) Regression -->
     <g transform="translate(587.9475 203.360625) scale(0.12 -0.12)">
      <use xlink:href="#DejaVuSans-50"/>
      <use xlink:href="#DejaVuSans-6f" transform="translate(56.677734 0)"/>
      <use xlink:href="#DejaVuSans-6c" transform="translate(117.859375 0)"/>
      <use xlink:href="#DejaVuSans-79" transform="translate(145.642578 0)"/>
      <use xlink:href="#DejaVuSans-6e" transform="translate(204.822266 0)"/>
      <use xlink:href="#DejaVuSans-6f" transform="translate(268.201172 0)"/>
      <use xlink:href="#DejaVuSans-6d" transform="translate(329.382812 0)"/>
      <use xlink:href="#DejaVuSans-69" transform="translate(426.794922 0)"/>
      <use xlink:href="#DejaVuSans-61" transform="translate(454.578125 0)"/>
      <use xlink:href="#DejaVuSans-6c" transform="translate(515.857422 0)"/>
      <use xlink:href="#DejaVuSans-20" transform="translate(543.640625 0)"/>
      <use xlink:href="#DejaVuSans-28" transform="translate(575.427734 0)"/>
      <use xlink:href="#DejaVuSans-32" transform="translate(614.441406 0)"/>
      <use xlink:href="#DejaVuSans-29" transform="translate(678.064453 0)"/>
      <use xlink:href="#DejaVuSans-20" transform="translate(717.078125 0)"/>
      <use xlink:href="#DejaVuSans-52" transform="translate(748.865234 0)"/>
      <use xlink:href="#DejaVuSans-65" transform="translate(813.847656 0)"/>
      <use xlink:href="#DejaVuSans-67" transform="translate(875.371094 0)"/>
      <use xlink:href="#DejaVuSans-72" transform="translate(938.847656 0)"/>
      <use xlink:href="#DejaVuSans-65" transform="translate(977.710938 0)"/>
      <use xlink:href="#DejaVuSans-73" transform="translate(1039.234375 0)"/>
      <use xlink:href="#DejaVuSans-73" transform="translate(1091.333984 0)"/>
      <use xlink:href="#DejaVuSans-69" transform="translate(1143.433594 0)"/>
      <use xlink:href="#DejaVuSans-6f" transform="translate(1171.216797 0)"/>
      <use xlink:href="#DejaVuSans-6e" transform="translate(1232.398438 0)"/>
     </g>
    </g>
    <g id="line2d_45">
     <path d="M 554.3475 216.774375 
L 566.3475 216.774375 
L 578.3475 216.774375 
" style="fill: none; stroke: #00ffff; stroke-width: 1.5; stroke-linecap: square"/>
     <defs>
      <path id="m84c28af3e7" d="M -1.913417 -4.619398 
L -4.619398 -1.913417 
L -4.619398 1.913417 
L -1.913417 4.619398 
L 1.913417 4.619398 
L 4.619398 1.913417 
L 4.619398 -1.913417 
L 1.913417 -4.619398 
z
" style="stroke: #00ffff; stroke-linejoin: miter"/>
     </defs>
     <g>
      <use xlink:href="#m84c28af3e7" x="566.3475" y="216.774375" style="fill: #00ffff; stroke: #00ffff; stroke-linejoin: miter"/>
     </g>
    </g>
    <g id="text_21">
     <!-- Turgut, CFM56-7B26 -->
     <g transform="translate(587.9475 220.974375) scale(0.12 -0.12)">
      <defs>
       <path id="DejaVuSans-2c" d="M 750 794 
L 1409 794 
L 1409 256 
L 897 -744 
L 494 -744 
L 750 256 
L 750 794 
z
" transform="scale(0.015625)"/>
       <path id="DejaVuSans-37" d="M 525 4666 
L 3525 4666 
L 3525 4397 
L 1831 0 
L 1172 0 
L 2766 4134 
L 525 4134 
L 525 4666 
z
" transform="scale(0.015625)"/>
       <path id="DejaVuSans-42" d="M 1259 2228 
L 1259 519 
L 2272 519 
Q 2781 519 3026 730 
Q 3272 941 3272 1375 
Q 3272 1813 3026 2020 
Q 2781 2228 2272 2228 
L 1259 2228 
z
M 1259 4147 
L 1259 2741 
L 2194 2741 
Q 2656 2741 2882 2914 
Q 3109 3088 3109 3444 
Q 3109 3797 2882 3972 
Q 2656 4147 2194 4147 
L 1259 4147 
z
M 628 4666 
L 2241 4666 
Q 2963 4666 3353 4366 
Q 3744 4066 3744 3513 
Q 3744 3084 3544 2831 
Q 3344 2578 2956 2516 
Q 3422 2416 3680 2098 
Q 3938 1781 3938 1306 
Q 3938 681 3513 340 
Q 3088 0 2303 0 
L 628 0 
L 628 4666 
z
" transform="scale(0.015625)"/>
      </defs>
      <use xlink:href="#DejaVuSans-54"/>
      <use xlink:href="#DejaVuSans-75" transform="translate(45.958984 0)"/>
      <use xlink:href="#DejaVuSans-72" transform="translate(109.337891 0)"/>
      <use xlink:href="#DejaVuSans-67" transform="translate(148.701172 0)"/>
      <use xlink:href="#DejaVuSans-75" transform="translate(212.177734 0)"/>
      <use xlink:href="#DejaVuSans-74" transform="translate(275.556641 0)"/>
      <use xlink:href="#DejaVuSans-2c" transform="translate(314.765625 0)"/>
      <use xlink:href="#DejaVuSans-20" transform="translate(346.552734 0)"/>
      <use xlink:href="#DejaVuSans-43" transform="translate(378.339844 0)"/>
      <use xlink:href="#DejaVuSans-46" transform="translate(448.164062 0)"/>
      <use xlink:href="#DejaVuSans-4d" transform="translate(505.683594 0)"/>
      <use xlink:href="#DejaVuSans-35" transform="translate(591.962891 0)"/>
      <use xlink:href="#DejaVuSans-36" transform="translate(655.585938 0)"/>
      <use xlink:href="#DejaVuSans-2d" transform="translate(719.208984 0)"/>
      <use xlink:href="#DejaVuSans-37" transform="translate(755.292969 0)"/>
      <use xlink:href="#DejaVuSans-42" transform="translate(818.916016 0)"/>
      <use xlink:href="#DejaVuSans-32" transform="translate(887.519531 0)"/>
      <use xlink:href="#DejaVuSans-36" transform="translate(951.142578 0)"/>
     </g>
    </g>
   </g>
   <g id="line2d_46">
    <path d="M 202.512919 533.120733 
L 362.704306 369.02997 
L 522.895694 412.660354 
L 683.087081 492.074871 
" clip-path="url(#p56a6082e3b)" style="fill: none; stroke-dasharray: 5.55,2.4; stroke-dashoffset: 0; stroke: #000000; stroke-width: 1.5"/>
    <g clip-path="url(#p56a6082e3b)">
     <use xlink:href="#mf32a38c582" x="202.512919" y="533.120733" style="stroke: #000000; stroke-linejoin: bevel"/>
     <use xlink:href="#mf32a38c582" x="362.704306" y="369.02997" style="stroke: #000000; stroke-linejoin: bevel"/>
     <use xlink:href="#mf32a38c582" x="522.895694" y="412.660354" style="stroke: #000000; stroke-linejoin: bevel"/>
     <use xlink:href="#mf32a38c582" x="683.087081" y="492.074871" style="stroke: #000000; stroke-linejoin: bevel"/>
    </g>
   </g>
   <g id="line2d_47">
    <path d="M 202.512919 535.955338 
L 362.704306 338.52434 
L 522.895694 408.014647 
L 683.087081 496.471948 
" clip-path="url(#p56a6082e3b)" style="fill: none; stroke-dasharray: 9.6,2.4,1.5,2.4; stroke-dashoffset: 0; stroke: #adff2f; stroke-width: 1.5"/>
    <g clip-path="url(#p56a6082e3b)">
     <use xlink:href="#mada47172a4" x="202.512919" y="535.955338" style="fill: #adff2f; stroke: #adff2f; stroke-linejoin: miter"/>
     <use xlink:href="#mada47172a4" x="362.704306" y="338.52434" style="fill: #adff2f; stroke: #adff2f; stroke-linejoin: miter"/>
     <use xlink:href="#mada47172a4" x="522.895694" y="408.014647" style="fill: #adff2f; stroke: #adff2f; stroke-linejoin: miter"/>
     <use xlink:href="#mada47172a4" x="683.087081" y="496.471948" style="fill: #adff2f; stroke: #adff2f; stroke-linejoin: miter"/>
    </g>
   </g>
   <g id="line2d_48">
    <path d="M 202.512919 554.04 
L 362.704306 355.603298 
L 522.895694 442.52911 
L 683.087081 545.259615 
" clip-path="url(#p56a6082e3b)" style="fill: none; stroke: #00ffff; stroke-width: 1.5; stroke-linecap: square"/>
    <g clip-path="url(#p56a6082e3b)">
     <use xlink:href="#m84c28af3e7" x="202.512919" y="554.04" style="fill: #00ffff; stroke: #00ffff; stroke-linejoin: miter"/>
     <use xlink:href="#m84c28af3e7" x="362.704306" y="355.603298" style="fill: #00ffff; stroke: #00ffff; stroke-linejoin: miter"/>
     <use xlink:href="#m84c28af3e7" x="522.895694" y="442.52911" style="fill: #00ffff; stroke: #00ffff; stroke-linejoin: miter"/>
     <use xlink:href="#m84c28af3e7" x="683.087081" y="545.259615" style="fill: #00ffff; stroke: #00ffff; stroke-linejoin: miter"/>
    </g>
   </g>
  </g>
 </g>
 <defs>
  <clipPath id="p56a6082e3b">
   <rect x="108" y="77.76" width="669.6" height="498.96"/>
  </clipPath>
 </defs>
</svg>
